<svg xmlns="http://www.w3.org/2000/svg" viewBox="0 0 500 500"><g id="freepik--Phoenix--inject-4"><g id="freepik--phoenix--inject-4"><g id="freepik--Tail--inject-4"><path d="M246.6,286.88c-2.25,5.67-5.81,15.33-10.51,21.4-4.3,5.57-11.13,10.26-12.49,11.41s-.84,2.05,3.51.39c4.68-1.78,13.24-7.38,16.8-16.6Z" style="fill:#F51212"></path><path d="M249,281.05c-3.15,5.58-4.29,10.57-11,17.26s-16.21,7-19,7.05-1.31,1.49,2.09,2.28,12.32.87,18.85-4.63C248.4,295.86,249,281.05,249,281.05Z" style="fill:#F51212"></path><path d="M249,281.05c-3.15,5.58-4.29,10.57-11,17.26s-16.21,7-19,7.05-1.31,1.49,2.09,2.28,12.32.87,18.85-4.63C248.4,295.86,249,281.05,249,281.05Z" style="opacity:0.15"></path><path d="M249,281.05c-2.93,5.53-8,9.75-12.47,11s-6.16.57-7.54.68-1.28,1.07.88,1.68a18.11,18.11,0,0,0,11.8-1.32C247.28,290.5,249,281.05,249,281.05Z" style="fill:#F51212"></path><path d="M249,281.05c-2.93,5.53-8,9.75-12.47,11s-6.16.57-7.54.68-1.28,1.07.88,1.68a18.11,18.11,0,0,0,11.8-1.32C247.28,290.5,249,281.05,249,281.05Z" style="opacity:0.25"></path><path d="M244.74,298.28c-1.39,5.82-6,17.4-14.31,25.25-5.44,5.14-11,7.58-14,8.27s-3.11,1.61-1.07,2.14,6.86.05,10.85-2.13a43.33,43.33,0,0,1-11.64,12.45c-7.36,5-10.57,6.53-13,7.62s.43,2.25,6.25.28A55.38,55.38,0,0,0,223.69,343C238.31,329.28,244.51,317.32,244.74,298.28Z" style="fill:#F51212"></path><path d="M244.74,298.28c-1.39,5.82-6,17.4-14.31,25.25-5.44,5.14-11,7.58-14,8.27s-3.11,1.61-1.07,2.14,6.86.05,10.85-2.13a43.33,43.33,0,0,1-11.64,12.45c-7.36,5-10.57,6.53-13,7.62s.43,2.25,6.25.28A55.38,55.38,0,0,0,223.69,343C238.31,329.28,244.51,317.32,244.74,298.28Z" style="fill:#fff;opacity:0.30000000000000004"></path><g style="opacity:0.15"><path d="M236.16,323.37a30.24,30.24,0,0,1-10,8.44,43.33,43.33,0,0,1-11.64,12.45c-2.84,1.94-5.06,3.36-6.86,4.43h0C219.86,343.65,228.72,334.54,236.16,323.37Z"></path><path d="M236.16,323.37c.33-.45.62-.89.87-1.31Z"></path></g><path d="M260.06,305.22c-1.43,2.18-1.4,11.45,2,15.16s7.24,6.06,9.32,6.53.8,1.65-2.52,1.08c-2.92-.5-12.95-3.81-14.75-16.94S260.94,300.64,260.06,305.22Z" style="fill:#F51212"></path><path d="M260.06,305.22c-1.43,2.18-1.4,11.45,2,15.16s7.24,6.06,9.32,6.53.8,1.65-2.52,1.08c-2.92-.5-12.95-3.81-14.75-16.94S260.94,300.64,260.06,305.22Z" style="opacity:0.25"></path><path d="M258.36,304.39c-1.28,3.86-.66,16.1,4.89,21.39s9.44,7.79,13.95,9.47,6.63,2.49,4.71,3.39-6.67-.41-11.38-2.51a30.51,30.51,0,0,1-17.48-22.82l5.31-8.92" style="fill:#F51212"></path><path d="M258.36,304.39c-1.28,3.86-.66,16.1,4.89,21.39s9.44,7.79,13.95,9.47,6.63,2.49,4.71,3.39-6.67-.41-11.38-2.51a30.51,30.51,0,0,1-17.48-22.82l5.31-8.92" style="opacity:0.15"></path><path d="M253.88,313.1c1.74,11.61,10,22,20.6,28.06s16.9,5.58,19.23,5.91,3.47,2.31-1.38,2.91-17.72-1.73-27.95-9.26-17.52-24.85-17.52-24.85Z" style="fill:#F51212;opacity:0.8"></path><path d="M253.88,313.1c1.74,11.61,10,22,20.6,28.06s16.9,5.58,19.23,5.91,3.47,2.31-1.38,2.91-17.72-1.73-27.95-9.26-17.52-24.85-17.52-24.85Z" style="fill:#fff;opacity:0.30000000000000004"></path><path d="M256.89,348.4a50.49,50.49,0,0,0-17.89-.23c-2.66.41-6.22.7-8.58,2.08-1.53.91-2.76,2.46-4.24,3.5-6.94,4.9-15.65,10.34-16.82,19.57-.28,2.2-.14,4.43-.33,6.64a10.5,10.5,0,0,1-2.21,6.15c-1.46,1.67-4,2.53-6,1.53s-2.66-4.12-.93-5.52a4.93,4.93,0,0,0,3.19,9.3c-4.21,2.45-8.36,5.58-10.11,10.12s0,10.68,4.6,12.2a6.25,6.25,0,0,1,4.88-10.07c-3.8,3.59-3.6,9.8-1.72,14.68s5.09,9.21,6.62,14.21.77,11.37-3.71,14.08a4.61,4.61,0,0,1-4.31.51c-1.35-.67-2-2.7-.94-3.77-2.71.27-4,4-2.63,6.35s4.44,3.26,7.15,3a11.78,11.78,0,0,0,9-5.95c2.66-4.85,1.56-10.78,1-16.29s-.26-11.93,4.13-15.31a10.12,10.12,0,0,0,5.37,11.43,25.36,25.36,0,0,1,8.4-28.67c-4.09,2.74-3.45,8.92-1.74,13.54s4,9.78,1.83,14.19c-1.15,2.29-3.32,3.87-5.08,5.74-6.6,7.07-6.4,19.41.43,26.26a57.92,57.92,0,0,1,5.63,6.08,7.12,7.12,0,0,1,1.83,4.58,4,4,0,1,1-7.94-.91,13.59,13.59,0,0,0-.6,5.06,6.07,6.07,0,0,0,2.39,4.36,7.91,7.91,0,0,0,5,1,10.15,10.15,0,0,0,5.9-1.95c2.15-1.78,2.89-4.84,2.51-7.6a20.18,20.18,0,0,0-3.21-7.64c-1-1.62-2.1-3.21-3-4.89a7.89,7.89,0,0,1-1-4.05,16,16,0,0,1,8.29,4.47c2.18,2.34,3.24,5.94,1.89,8.83a7.67,7.67,0,0,0,2.11-7.44c-1.07-3.95-5.08-6.35-7.11-9.91a11.14,11.14,0,0,1,.41-11.49c2.28,1.21,5.55,3.69,5.88,6.43a4.9,4.9,0,0,1-1.57,4.32c.37-.31,1.14-.39,1.58-.69a5.17,5.17,0,0,0,1.43-1.48,4.92,4.92,0,0,0,.6-4.12c-.8-2.77-2.57-5.43-2.12-8.27.39-2.39,2.24-4.22,3.74-6.13s2.71-4.5,1.64-6.68c3.11,2.82,2.71,7.8,1.46,11.8s-3.13,8.14-2.17,12.22c.77,3.24,3.21,5.79,5.57,8.14s4.86,4.81,5.8,8-.36,7.32-3.56,8.26c4.73-.78,7.33-6.29,7-11.07s-2.76-9.11-4.43-13.61-2.51-9.81.05-13.85a12,12,0,0,0,5.62,9.57,9.77,9.77,0,0,0,10.84-.61,8.26,8.26,0,0,0,2-10.39c.25,3-3.53,5.31-6.38,4.25a6.51,6.51,0,0,1-3.82-4.58c-.38-1.42-.73-5.05,1.3-5.44a2.27,2.27,0,0,1,2.34,1.62,6.63,6.63,0,0,1,.06,3.07,17.7,17.7,0,0,0,2.91-10.3,22.6,22.6,0,0,0-2.91-9.15A38,38,0,0,1,277.8,411a22,22,0,0,1,4.47,5.32,21.13,21.13,0,0,1,2.49,15.08,58.32,58.32,0,0,1-2.6,8.27c-.49,1.36-.94,2.73-1.32,4.13a11.3,11.3,0,0,0-.79,3.24,10.07,10.07,0,0,0,8.15,9.62c-3.58-2.64-3.95-8-2.57-12.22,1.33-4.09,4-7.54,5.57-11.49.77-1.92,2-8.45.59-11.83a8.1,8.1,0,0,0,7.71,1.15,8.27,8.27,0,0,0,4.55-6.09c-1.57,3.19-7.84,2.93-10.54-.17s-3.16-7.5-3.51-11.6-.83-8.5-3.57-11.57A19.3,19.3,0,0,1,297.07,408a19.92,19.92,0,0,0-8.39-18.43c2.47,2.78,8,1.13,8.52-2.55-3.39,2.48-8.44,0-10.51-3.69s-2.25-8-3.35-12.09C280.15,359.38,268.9,350.87,256.89,348.4Z" style="fill:#F51212"></path><path d="M256.89,348.4a50.49,50.49,0,0,0-17.89-.23c-2.66.41-6.22.7-8.58,2.08-1.53.91-2.76,2.46-4.24,3.5-6.94,4.9-15.65,10.34-16.82,19.57-.28,2.2-.14,4.43-.33,6.64a10.5,10.5,0,0,1-2.21,6.15c-1.46,1.67-4,2.53-6,1.53s-2.66-4.12-.93-5.52a4.93,4.93,0,0,0,3.19,9.3c-4.21,2.45-8.36,5.58-10.11,10.12s0,10.68,4.6,12.2a6.25,6.25,0,0,1,4.88-10.07c-3.8,3.59-3.6,9.8-1.72,14.68s5.09,9.21,6.62,14.21.77,11.37-3.71,14.08a4.61,4.61,0,0,1-4.31.51c-1.35-.67-2-2.7-.94-3.77-2.71.27-4,4-2.63,6.35s4.44,3.26,7.15,3a11.78,11.78,0,0,0,9-5.95c2.66-4.85,1.56-10.78,1-16.29s-.26-11.93,4.13-15.31a10.12,10.12,0,0,0,5.37,11.43,25.36,25.36,0,0,1,8.4-28.67c-4.09,2.74-3.45,8.92-1.74,13.54s4,9.78,1.83,14.19c-1.15,2.29-3.32,3.87-5.08,5.74-6.6,7.07-6.4,19.41.43,26.26a57.92,57.92,0,0,1,5.63,6.08,7.12,7.12,0,0,1,1.83,4.58,4,4,0,1,1-7.94-.91,13.59,13.59,0,0,0-.6,5.06,6.07,6.07,0,0,0,2.39,4.36,7.91,7.91,0,0,0,5,1,10.15,10.15,0,0,0,5.9-1.95c2.15-1.78,2.89-4.84,2.51-7.6a20.18,20.18,0,0,0-3.21-7.64c-1-1.62-2.1-3.21-3-4.89a7.89,7.89,0,0,1-1-4.05,16,16,0,0,1,8.29,4.47c2.18,2.34,3.24,5.94,1.89,8.83a7.67,7.67,0,0,0,2.11-7.44c-1.07-3.95-5.08-6.35-7.11-9.91a11.14,11.14,0,0,1,.41-11.49c2.28,1.21,5.55,3.69,5.88,6.43a4.9,4.9,0,0,1-1.57,4.32c.37-.31,1.14-.39,1.58-.69a5.17,5.17,0,0,0,1.43-1.48,4.92,4.92,0,0,0,.6-4.12c-.8-2.77-2.57-5.43-2.12-8.27.39-2.39,2.24-4.22,3.74-6.13s2.71-4.5,1.64-6.68c3.11,2.82,2.71,7.8,1.46,11.8s-3.13,8.14-2.17,12.22c.77,3.24,3.21,5.79,5.57,8.14s4.86,4.81,5.8,8-.36,7.32-3.56,8.26c4.73-.78,7.33-6.29,7-11.07s-2.76-9.11-4.43-13.61-2.51-9.81.05-13.85a12,12,0,0,0,5.62,9.57,9.77,9.77,0,0,0,10.84-.61,8.26,8.26,0,0,0,2-10.39c.25,3-3.53,5.31-6.38,4.25a6.51,6.51,0,0,1-3.82-4.58c-.38-1.42-.73-5.05,1.3-5.44a2.27,2.27,0,0,1,2.34,1.62,6.63,6.63,0,0,1,.06,3.07,17.7,17.7,0,0,0,2.91-10.3,22.6,22.6,0,0,0-2.91-9.15A38,38,0,0,1,277.8,411a22,22,0,0,1,4.47,5.32,21.13,21.13,0,0,1,2.49,15.08,58.32,58.32,0,0,1-2.6,8.27c-.49,1.36-.94,2.73-1.32,4.13a11.3,11.3,0,0,0-.79,3.24,10.07,10.07,0,0,0,8.15,9.62c-3.58-2.64-3.95-8-2.57-12.22,1.33-4.09,4-7.54,5.57-11.49.77-1.92,2-8.45.59-11.83a8.1,8.1,0,0,0,7.71,1.15,8.27,8.27,0,0,0,4.55-6.09c-1.57,3.19-7.84,2.93-10.54-.17s-3.16-7.5-3.51-11.6-.83-8.5-3.57-11.57A19.3,19.3,0,0,1,297.07,408a19.92,19.92,0,0,0-8.39-18.43c2.47,2.78,8,1.13,8.52-2.55-3.39,2.48-8.44,0-10.51-3.69s-2.25-8-3.35-12.09C280.15,359.38,268.9,350.87,256.89,348.4Z" style="fill:#fff;opacity:0.8"></path><path d="M233.84,328.73c-4.65,7-8.78,14-10.83,22.19-1.21,4.87-6.09,7.92-10.6,9.48a19.16,19.16,0,0,0-4,1.59,4.18,4.18,0,0,0-2.18,3.53,4.29,4.29,0,0,1,2.23-1,2.48,2.48,0,0,1,2.19.89c1,1.42-.71,3.49-1.67,4.48a11.58,11.58,0,0,1-9.72,3.4c-2.65-.35-5.1-1.61-7.74-2s-5.83.48-6.77,3c1.81-2.2,5.23-2.17,7.93-1.25s5.19,2.52,8,2.86c3.47.42,6.94-1.17,9.55-3.49a37.35,37.35,0,0,0,6.38-8.26c-2.09,3.78-1.72,8.38-1.42,12.69s.33,9-2.24,12.49c-2.06,2.79-5.66,4.57-6.55,7.93-.6,2.29.28,4.69,1.2,6.88s1.94,4.49,1.6,6.84-2.65,4.59-4.91,3.87c2.39,1.46,5.75.07,7.17-2.35s1.29-5.45.6-8.16c-.6-2.33-1.56-4.77-.8-7,.86-2.59,3.61-3.94,5.64-5.76,3.48-3.1,5-7.84,5.65-12.46.51-3.8-.08-7.83.94-11.49a20.69,20.69,0,0,1,5.81-9.55,28.76,28.76,0,0,0-1.59,17.8c1.12,4.8,3.5,9.68,2.2,14.43-.91,3.35-3.5,5.93-5.59,8.69s-3.84,6.32-2.72,9.61c.83,2.44,3,4.09,5,5.79s3.85,3.92,3.7,6.5c-.17,3-3,5.13-4.17,7.93a7.32,7.32,0,0,0,8.69,9.83,5.69,5.69,0,0,1-5.06-9.26c1.51-1.86,4-2.61,5.63-4.4a6.31,6.31,0,0,0,.28-7.79,7.64,7.64,0,0,0,6.89-7.11c0,1.09-3,2.58-3.86,2.87a4.68,4.68,0,0,1-4.39-.47,6.8,6.8,0,0,1-2.81-8c1-3.15,3.43-5.57,5.4-8.22s3.57-6,2.51-9.15c-.86,4.38,1.43,8.69,3.5,12.65s4,8.55,2.53,12.75c-.89,2.47-2.86,4.41-3.95,6.79s-.86,5.85,1.55,6.88c-1-2.5.33-5.32,2-7.44s3.7-4,4.57-6.58c1.58-4.65-1.28-9.5-2.38-14.29a20.41,20.41,0,0,1,4.52-17.8,49.93,49.93,0,0,0-1.19,11.22,16.8,16.8,0,0,0,3.8,10.42c1.67,1.87,3.86,3.19,5.76,4.83s3.59,3.83,3.68,6.34a12,12,0,0,1-1.52,5.24,11,11,0,0,0-1.44,5.25,4.89,4.89,0,0,0,3.54,4.2c-3.89-2.41-1.41-6.94.24-9.89s3.85-5.95,3.56-9.32c-.44-5-6.21-8.42-6.31-13.44a3.3,3.3,0,0,0,5.5-2.93c-1.59,1.51-4.49.26-5.26-1.79s0-4.35.92-6.32,2.18-3.9,2.42-6.08c.82,4.56,3.52,8.53,5.32,12.8s2.54,9.58-.28,13.25c5.87-6.37,4.49-12.74,2-18.83a6.74,6.74,0,0,0,9,3.05c-3.72.4-6.81-3.23-7.53-6.9s.17-7.44.4-11.17-.45-7.94-3.4-10.23c2.5.78,4.23,3.11,5.27,5.52s1.58,5,2.7,7.39a16.82,16.82,0,0,0,11.58,9.12c2.77.57,5.73.45,8.3,1.62s4.58,4.42,3.09,6.83c2-3.17.66-7.56-2-10.2s-6.32-3.94-9.85-5.17c5.37-1.19,12.81.65,14.82,5.15-1.29-5.19-6.67-6.78-11-8.51-2.5-1-4.82-1.3-7-3.1a13.39,13.39,0,0,1-4.41-6.65,9.85,9.85,0,0,0,12.19,1c1.58-1.11,2.78-2.67,4.29-3.87s3.56-2,5.35-1.31c-1.58-1.23-3.9-.81-5.68.11s-3.33,2.3-5.22,3a9.91,9.91,0,0,1-7.95-1,22.2,22.2,0,0,1-6.07-5.53c-1.74-2.14-3.33-4.4-5.26-6.37-3.62-3.68-7-7-10.6-10.74a42.35,42.35,0,0,1-4.11-5.05,77,77,0,0,1-7.63-14.76c-1.25-3-2.3-6.1-3.4-9.17-.54-1.53-1.1-3.07-1.71-4.58-.15-.38-1-3.29-1.69-2.66a.82.82,0,0,0-.16.37c-1.43,6-2.78,12-5.25,17.73A64.16,64.16,0,0,1,233.84,328.73Z" style="fill:#F51212"></path><path d="M233.84,328.73c-4.65,7-8.78,14-10.83,22.19-1.21,4.87-6.09,7.92-10.6,9.48a19.16,19.16,0,0,0-4,1.59,4.18,4.18,0,0,0-2.18,3.53,4.29,4.29,0,0,1,2.23-1,2.48,2.48,0,0,1,2.19.89c1,1.42-.71,3.49-1.67,4.48a11.58,11.58,0,0,1-9.72,3.4c-2.65-.35-5.1-1.61-7.74-2s-5.83.48-6.77,3c1.81-2.2,5.23-2.17,7.93-1.25s5.19,2.52,8,2.86c3.47.42,6.94-1.17,9.55-3.49a37.35,37.35,0,0,0,6.38-8.26c-2.09,3.78-1.72,8.38-1.42,12.69s.33,9-2.24,12.49c-2.06,2.79-5.66,4.57-6.55,7.93-.6,2.29.28,4.69,1.2,6.88s1.94,4.49,1.6,6.84-2.65,4.59-4.91,3.87c2.39,1.46,5.75.07,7.17-2.35s1.29-5.45.6-8.16c-.6-2.33-1.56-4.77-.8-7,.86-2.59,3.61-3.94,5.64-5.76,3.48-3.1,5-7.84,5.65-12.46.51-3.8-.08-7.83.94-11.49a20.69,20.69,0,0,1,5.81-9.55,28.76,28.76,0,0,0-1.59,17.8c1.12,4.8,3.5,9.68,2.2,14.43-.91,3.35-3.5,5.93-5.59,8.69s-3.84,6.32-2.72,9.61c.83,2.44,3,4.09,5,5.79s3.85,3.92,3.7,6.5c-.17,3-3,5.13-4.17,7.93a7.32,7.32,0,0,0,8.69,9.83,5.69,5.69,0,0,1-5.06-9.26c1.51-1.86,4-2.61,5.63-4.4a6.31,6.31,0,0,0,.28-7.79,7.64,7.64,0,0,0,6.89-7.11c0,1.09-3,2.58-3.86,2.87a4.68,4.68,0,0,1-4.39-.47,6.8,6.8,0,0,1-2.81-8c1-3.15,3.43-5.57,5.4-8.22s3.57-6,2.51-9.15c-.86,4.38,1.43,8.69,3.5,12.65s4,8.55,2.53,12.75c-.89,2.47-2.86,4.41-3.95,6.79s-.86,5.85,1.55,6.88c-1-2.5.33-5.32,2-7.44s3.7-4,4.57-6.58c1.58-4.65-1.28-9.5-2.38-14.29a20.41,20.41,0,0,1,4.52-17.8,49.93,49.93,0,0,0-1.19,11.22,16.8,16.8,0,0,0,3.8,10.42c1.67,1.87,3.86,3.19,5.76,4.83s3.59,3.83,3.68,6.34a12,12,0,0,1-1.52,5.24,11,11,0,0,0-1.44,5.25,4.89,4.89,0,0,0,3.54,4.2c-3.89-2.41-1.41-6.94.24-9.89s3.85-5.95,3.56-9.32c-.44-5-6.21-8.42-6.31-13.44a3.3,3.3,0,0,0,5.5-2.93c-1.59,1.51-4.49.26-5.26-1.79s0-4.35.92-6.32,2.18-3.9,2.42-6.08c.82,4.56,3.52,8.53,5.32,12.8s2.54,9.58-.28,13.25c5.87-6.37,4.49-12.74,2-18.83a6.74,6.74,0,0,0,9,3.05c-3.72.4-6.81-3.23-7.53-6.9s.17-7.44.4-11.17-.45-7.94-3.4-10.23c2.5.78,4.23,3.11,5.27,5.52s1.58,5,2.7,7.39a16.82,16.82,0,0,0,11.58,9.12c2.77.57,5.73.45,8.3,1.62s4.58,4.42,3.09,6.83c2-3.17.66-7.56-2-10.2s-6.32-3.94-9.85-5.17c5.37-1.19,12.81.65,14.82,5.15-1.29-5.19-6.67-6.78-11-8.51-2.5-1-4.82-1.3-7-3.1a13.39,13.39,0,0,1-4.41-6.65,9.85,9.85,0,0,0,12.19,1c1.58-1.11,2.78-2.67,4.29-3.87s3.56-2,5.35-1.31c-1.58-1.23-3.9-.81-5.68.11s-3.33,2.3-5.22,3a9.91,9.91,0,0,1-7.95-1,22.2,22.2,0,0,1-6.07-5.53c-1.74-2.14-3.33-4.4-5.26-6.37-3.62-3.68-7-7-10.6-10.74a42.35,42.35,0,0,1-4.11-5.05,77,77,0,0,1-7.63-14.76c-1.25-3-2.3-6.1-3.4-9.17-.54-1.53-1.1-3.07-1.71-4.58-.15-.38-1-3.29-1.69-2.66a.82.82,0,0,0-.16.37c-1.43,6-2.78,12-5.25,17.73A64.16,64.16,0,0,1,233.84,328.73Z" style="fill:#fff;opacity:0.65"></path><path d="M246.08,306.73l-.27.71c-1.95,5.13-2.72,10.68-5.95,15.24a39.39,39.39,0,0,0-2.63,3.79,8.08,8.08,0,0,0-.68,1.87c-.11.39-.3.75-.38,1.15s0,.75-.08,1.11a6.37,6.37,0,0,1,4.47-4.94,8.11,8.11,0,0,0-3.31,6c-.1,1.58.26,3.22-.26,4.72a4.33,4.33,0,0,1-4.64,2.78,8.09,8.09,0,0,0,2.85.23,2.76,2.76,0,0,0,2.2-1.63,5.38,5.38,0,0,1-1.76,3.48,5.17,5.17,0,0,1-2.87,1.29,2.4,2.4,0,0,1-2-1.17,2.11,2.11,0,0,0,.28,1.87c.17.26,1.07,1.25,1.47,1a17.57,17.57,0,0,0-3.82,2.86,7,7,0,0,0-2,4.22,4.43,4.43,0,0,0,1.94,4.1,5.17,5.17,0,0,1,0-4.89,9.12,9.12,0,0,1,3.14-3.71,6.87,6.87,0,0,1,2-1,16,16,0,0,0,2.76-1.08,6.93,6.93,0,0,0,3-2.82,14.87,14.87,0,0,0-.45,1.56c-.78,2.07-2.64,3.59-3.7,5.52-1.89,3.43-.94,7.23.7,10.53a10.55,10.55,0,0,1,1.44,5.67c-.22,2-1.74,3.93-3.71,4a1.92,1.92,0,0,1-2-1.18c-.22-.8.76-1.73,1.43-1.25a2.62,2.62,0,0,0-2.6,3,3.61,3.61,0,0,0,3.27,2.77,5.91,5.91,0,0,0,4.23-1.53,11.47,11.47,0,0,0-.36,16.16c-1.78-1.42-2.27-4-1.79-6.24a18.2,18.2,0,0,1,3.06-6.07,19.74,19.74,0,0,0,3.14-6c.83-3.34-.19-6.81-.75-10.2-.32-1.87-1.27-3.37-1-5.36a6.79,6.79,0,0,1,3-4.85c-1.81,2.73-1.08,6.43.38,9.37s3.55,5.59,4.46,8.73.16,7.17-2.79,8.6c2.55.26,4.73-2.13,5.26-4.64,0-.21.09-.43.12-.64a18.65,18.65,0,0,0-.94-8.18,14.71,14.71,0,0,1-.8-4.72,5.48,5.48,0,0,1,2-4.21,10.72,10.72,0,0,0,1.08,7.42,44.79,44.79,0,0,0,4.72,6.45,11.07,11.07,0,0,1,1.29,1.89,3.82,3.82,0,0,1,.43,2.22,2.78,2.78,0,0,1-1.86,2.17,1.59,1.59,0,0,1-1.94-1.4c-.59,1,.38,2.39,1.54,2.63a5.8,5.8,0,0,0,3.42-.74c-1.38,1.74-2.72,3.68-2.89,5.89s1.3,4.7,3.52,4.84a3.38,3.38,0,0,1-2.13-3.68,8.4,8.4,0,0,1,2-4.09,15.16,15.16,0,0,0,2.54-3.84,7.8,7.8,0,0,0-.51-6.16,22.8,22.8,0,0,0-4-4.93,8.47,8.47,0,0,1-2.21-6.85,8.92,8.92,0,0,0,3.25,4.75c1.5,1.26,3.21,2.26,4.71,3.51a8.9,8.9,0,0,1,3.25,4.76,4.55,4.55,0,0,1-2.09,5c2.73-.19,4.07-3.37,3.7-5.56s-1.83-4-3-5.84-2.93-3.82-2.53-6a3.73,3.73,0,0,0,7.13.29c-1.62,1.33-4.21.61-5.58-1s-1.83-3.73-2.25-5.78c2.44,1.29,5.06,2.21,7.55,3.38a18,18,0,0,1,6.64,4.82,8.7,8.7,0,0,1,1.8,7.74c1.3-4-.57-8.41-3.42-11.49A36.67,36.67,0,0,0,271,349a24.26,24.26,0,0,0-2.46-1.68,8.36,8.36,0,0,0-2.48-1.28,4.2,4.2,0,0,0,2.2-.09,1.59,1.59,0,0,0,1.06-1.74,2,2,0,0,1-1.79.69,4.45,4.45,0,0,1-1.84-.73c-1.58-1-2.89-2.26-4.41-3.3a15.42,15.42,0,0,0-5.2-2.29,12.51,12.51,0,0,1,2.6.24,17,17,0,0,1,2.71.74,11.92,11.92,0,0,1,4.38,2.89,16,16,0,0,0-5.51-5.73,47.27,47.27,0,0,0-7.16-3.65,3.15,3.15,0,0,0,2.67-.35,3.1,3.1,0,0,0,1.37-2.31c-1,.92-2.77.47-3.69-.55a9,9,0,0,1-1.64-3.77,6.74,6.74,0,0,0-1.92-3.6,13.47,13.47,0,0,1,4.12,3.34c-.95-2.39-2.5-4.51-3.53-6.86a11.05,11.05,0,0,1-1-4.3c0-1.46.69-2.58.93-3.95" style="fill:#F51212"></path><path d="M246.08,306.73l-.27.71c-1.95,5.13-2.72,10.68-5.95,15.24a39.39,39.39,0,0,0-2.63,3.79,8.08,8.08,0,0,0-.68,1.87c-.11.39-.3.75-.38,1.15s0,.75-.08,1.11a6.37,6.37,0,0,1,4.47-4.94,8.11,8.11,0,0,0-3.31,6c-.1,1.58.26,3.22-.26,4.72a4.33,4.33,0,0,1-4.64,2.78,8.09,8.09,0,0,0,2.85.23,2.76,2.76,0,0,0,2.2-1.63,5.38,5.38,0,0,1-1.76,3.48,5.17,5.17,0,0,1-2.87,1.29,2.4,2.4,0,0,1-2-1.17,2.11,2.11,0,0,0,.28,1.87c.17.26,1.07,1.25,1.47,1a17.57,17.57,0,0,0-3.82,2.86,7,7,0,0,0-2,4.22,4.43,4.43,0,0,0,1.94,4.1,5.17,5.17,0,0,1,0-4.89,9.12,9.12,0,0,1,3.14-3.71,6.87,6.87,0,0,1,2-1,16,16,0,0,0,2.76-1.08,6.93,6.93,0,0,0,3-2.82,14.87,14.87,0,0,0-.45,1.56c-.78,2.07-2.64,3.59-3.7,5.52-1.89,3.43-.94,7.23.7,10.53a10.55,10.55,0,0,1,1.44,5.67c-.22,2-1.74,3.93-3.71,4a1.92,1.92,0,0,1-2-1.18c-.22-.8.76-1.73,1.43-1.25a2.62,2.62,0,0,0-2.6,3,3.61,3.61,0,0,0,3.27,2.77,5.91,5.91,0,0,0,4.23-1.53,11.47,11.47,0,0,0-.36,16.16c-1.78-1.42-2.27-4-1.79-6.24a18.2,18.2,0,0,1,3.06-6.07,19.74,19.74,0,0,0,3.14-6c.83-3.34-.19-6.81-.75-10.2-.32-1.87-1.27-3.37-1-5.36a6.79,6.79,0,0,1,3-4.85c-1.81,2.73-1.08,6.43.38,9.37s3.55,5.59,4.46,8.73.16,7.17-2.79,8.6c2.55.26,4.73-2.13,5.26-4.64,0-.21.09-.43.12-.64a18.65,18.65,0,0,0-.94-8.18,14.71,14.71,0,0,1-.8-4.72,5.48,5.48,0,0,1,2-4.21,10.72,10.72,0,0,0,1.08,7.42,44.79,44.79,0,0,0,4.72,6.45,11.07,11.07,0,0,1,1.29,1.89,3.82,3.82,0,0,1,.43,2.22,2.78,2.78,0,0,1-1.86,2.17,1.59,1.59,0,0,1-1.94-1.4c-.59,1,.38,2.39,1.54,2.63a5.8,5.8,0,0,0,3.42-.74c-1.38,1.74-2.72,3.68-2.89,5.89s1.3,4.7,3.52,4.84a3.38,3.38,0,0,1-2.13-3.68,8.4,8.4,0,0,1,2-4.09,15.16,15.16,0,0,0,2.54-3.84,7.8,7.8,0,0,0-.51-6.16,22.8,22.8,0,0,0-4-4.93,8.47,8.47,0,0,1-2.21-6.85,8.92,8.92,0,0,0,3.25,4.75c1.5,1.26,3.21,2.26,4.71,3.51a8.9,8.9,0,0,1,3.25,4.76,4.55,4.55,0,0,1-2.09,5c2.73-.19,4.07-3.37,3.7-5.56s-1.83-4-3-5.84-2.93-3.82-2.53-6a3.73,3.73,0,0,0,7.13.29c-1.62,1.33-4.21.61-5.58-1s-1.83-3.73-2.25-5.78c2.44,1.29,5.06,2.21,7.55,3.38a18,18,0,0,1,6.64,4.82,8.7,8.7,0,0,1,1.8,7.74c1.3-4-.57-8.41-3.42-11.49A36.67,36.67,0,0,0,271,349a24.26,24.26,0,0,0-2.46-1.68,8.36,8.36,0,0,0-2.48-1.28,4.2,4.2,0,0,0,2.2-.09,1.59,1.59,0,0,0,1.06-1.74,2,2,0,0,1-1.79.69,4.45,4.45,0,0,1-1.84-.73c-1.58-1-2.89-2.26-4.41-3.3a15.42,15.42,0,0,0-5.2-2.29,12.51,12.51,0,0,1,2.6.24,17,17,0,0,1,2.71.74,11.92,11.92,0,0,1,4.38,2.89,16,16,0,0,0-5.51-5.73,47.27,47.27,0,0,0-7.16-3.65,3.15,3.15,0,0,0,2.67-.35,3.1,3.1,0,0,0,1.37-2.31c-1,.92-2.77.47-3.69-.55a9,9,0,0,1-1.64-3.77,6.74,6.74,0,0,0-1.92-3.6,13.47,13.47,0,0,1,4.12,3.34c-.95-2.39-2.5-4.51-3.53-6.86a11.05,11.05,0,0,1-1-4.3c0-1.46.69-2.58.93-3.95" style="fill:#fff;opacity:0.5"></path><path d="M253.58,341.82a7.88,7.88,0,0,1-.89-.84,13.3,13.3,0,0,1-3-6.65,10.17,10.17,0,0,1,3.22,4.29c.36-1.8-.54-3.62-1.64-5.09a23.82,23.82,0,0,1-3.15-4.5,4.57,4.57,0,0,0,3.37,1.6,2.86,2.86,0,0,1-1.77-1.65,6.52,6.52,0,0,1-.45-2.44,20.72,20.72,0,0,0-.13-2.5,6.77,6.77,0,0,0-1.86-3.67,2.51,2.51,0,0,0,3,1,3.53,3.53,0,0,1-2.29-4.25c.17-.55.47-1,.67-1.58.36-1,.1-2.49-1.24-2.39-1,.06-1.67,1.47-2.08,2.2a11.27,11.27,0,0,0-1.39,7.07,9.85,9.85,0,0,1,.27,3,2.18,2.18,0,0,1-1.92,2,1,1,0,0,1-.92-.52.61.61,0,0,1,.41-.86c-.94.08-1.26,1.49-.61,2.17a2.23,2.23,0,0,0,2.61.18,10.13,10.13,0,0,0-3.89,5.53c-.48,2.25.54,4.93,2.7,5.72a3.55,3.55,0,0,1-1.22-4.07,10.3,10.3,0,0,1,2.54-3.78,5.07,5.07,0,0,0-.68,4.79c.47,1.62,1.37,3.08,1.9,4.68a4.41,4.41,0,0,1-.07,3.58c-.63,1.07-2.3,1.51-3.11.58a2.79,2.79,0,0,0,3.84.43,4.52,4.52,0,0,0,1.6-3.83,13,13,0,0,0-1.08-4.17c1.66,3.1,3.37,6.51,2.76,10a25.81,25.81,0,0,0-.74,3.64,4.93,4.93,0,0,0,2.35,4.27c-1-.62-1.1-2.51-1.09-3.54a11.34,11.34,0,0,1,1.34-4.63,11.43,11.43,0,0,0,1-3.65,13.83,13.83,0,0,0,.56,3.78c.49,1.44,1.61,3.2,3.3,3.3a2.35,2.35,0,0,0,1.65-.56,2.09,2.09,0,0,1-2.08-.27,3.32,3.32,0,0,1-1.15-1.83,7.38,7.38,0,0,1-.14-2.2c0-.73.11-1.46.08-2.2a4.3,4.3,0,0,0,4.81-.66C257.46,344.51,254.74,342.77,253.58,341.82Z" style="fill:#F51212"></path><path d="M253.58,341.82a7.88,7.88,0,0,1-.89-.84,13.3,13.3,0,0,1-3-6.65,10.17,10.17,0,0,1,3.22,4.29c.36-1.8-.54-3.62-1.64-5.09a23.82,23.82,0,0,1-3.15-4.5,4.57,4.57,0,0,0,3.37,1.6,2.86,2.86,0,0,1-1.77-1.65,6.52,6.52,0,0,1-.45-2.44,20.72,20.72,0,0,0-.13-2.5,6.77,6.77,0,0,0-1.86-3.67,2.51,2.51,0,0,0,3,1,3.53,3.53,0,0,1-2.29-4.25c.17-.55.47-1,.67-1.58.36-1,.1-2.49-1.24-2.39-1,.06-1.67,1.47-2.08,2.2a11.27,11.27,0,0,0-1.39,7.07,9.85,9.85,0,0,1,.27,3,2.18,2.18,0,0,1-1.92,2,1,1,0,0,1-.92-.52.61.61,0,0,1,.41-.86c-.94.08-1.26,1.49-.61,2.17a2.23,2.23,0,0,0,2.61.18,10.13,10.13,0,0,0-3.89,5.53c-.48,2.25.54,4.93,2.7,5.72a3.55,3.55,0,0,1-1.22-4.07,10.3,10.3,0,0,1,2.54-3.78,5.07,5.07,0,0,0-.68,4.79c.47,1.62,1.37,3.08,1.9,4.68a4.41,4.41,0,0,1-.07,3.58c-.63,1.07-2.3,1.51-3.11.58a2.79,2.79,0,0,0,3.84.43,4.52,4.52,0,0,0,1.6-3.83,13,13,0,0,0-1.08-4.17c1.66,3.1,3.37,6.51,2.76,10a25.81,25.81,0,0,0-.74,3.64,4.93,4.93,0,0,0,2.35,4.27c-1-.62-1.1-2.51-1.09-3.54a11.34,11.34,0,0,1,1.34-4.63,11.43,11.43,0,0,0,1-3.65,13.83,13.83,0,0,0,.56,3.78c.49,1.44,1.61,3.2,3.3,3.3a2.35,2.35,0,0,0,1.65-.56,2.09,2.09,0,0,1-2.08-.27,3.32,3.32,0,0,1-1.15-1.83,7.38,7.38,0,0,1-.14-2.2c0-.73.11-1.46.08-2.2a4.3,4.3,0,0,0,4.81-.66C257.46,344.51,254.74,342.77,253.58,341.82Z" style="fill:#F51212;opacity:0.5"></path><path d="M253.58,341.82a7.88,7.88,0,0,1-.89-.84,13.3,13.3,0,0,1-3-6.65,10.17,10.17,0,0,1,3.22,4.29c.36-1.8-.54-3.62-1.64-5.09a23.82,23.82,0,0,1-3.15-4.5,4.57,4.57,0,0,0,3.37,1.6,2.86,2.86,0,0,1-1.77-1.65,6.52,6.52,0,0,1-.45-2.44,20.72,20.72,0,0,0-.13-2.5,6.77,6.77,0,0,0-1.86-3.67,2.51,2.51,0,0,0,3,1,3.53,3.53,0,0,1-2.29-4.25c.17-.55.47-1,.67-1.58.36-1,.1-2.49-1.24-2.39-1,.06-1.67,1.47-2.08,2.2a11.27,11.27,0,0,0-1.39,7.07,9.85,9.85,0,0,1,.27,3,2.18,2.18,0,0,1-1.92,2,1,1,0,0,1-.92-.52.61.61,0,0,1,.41-.86c-.94.08-1.26,1.49-.61,2.17a2.23,2.23,0,0,0,2.61.18,10.13,10.13,0,0,0-3.89,5.53c-.48,2.25.54,4.93,2.7,5.72a3.55,3.55,0,0,1-1.22-4.07,10.3,10.3,0,0,1,2.54-3.78,5.07,5.07,0,0,0-.68,4.79c.47,1.62,1.37,3.08,1.9,4.68a4.41,4.41,0,0,1-.07,3.58c-.63,1.07-2.3,1.51-3.11.58a2.79,2.79,0,0,0,3.84.43,4.52,4.52,0,0,0,1.6-3.83,13,13,0,0,0-1.08-4.17c1.66,3.1,3.37,6.51,2.76,10a25.81,25.81,0,0,0-.74,3.64,4.93,4.93,0,0,0,2.35,4.27c-1-.62-1.1-2.51-1.09-3.54a11.34,11.34,0,0,1,1.34-4.63,11.43,11.43,0,0,0,1-3.65,13.83,13.83,0,0,0,.56,3.78c.49,1.44,1.61,3.2,3.3,3.3a2.35,2.35,0,0,0,1.65-.56,2.09,2.09,0,0,1-2.08-.27,3.32,3.32,0,0,1-1.15-1.83,7.38,7.38,0,0,1-.14-2.2c0-.73.11-1.46.08-2.2a4.3,4.3,0,0,0,4.81-.66C257.46,344.51,254.74,342.77,253.58,341.82Z" style="fill:#fff;opacity:0.30000000000000004"></path></g><path d="M285.22,314.25c-.11.23.25.67.36.86.18.46.48,1,.18,1.45a1.08,1.08,0,0,1-1.06.41,3.17,3.17,0,0,1-1.09-.46,1.37,1.37,0,0,1,.31.48.42.42,0,0,1-.19.5.52.52,0,0,1-.37,0,3.37,3.37,0,0,1-2.19-1.58,3,3,0,0,1,.08.79.93.93,0,0,1-.37.68.56.56,0,0,1-.72-.07A.93.93,0,0,1,280,317a14,14,0,0,0-2.67-4.59,4.14,4.14,0,0,1,.77,2.45,1,1,0,0,1-.07.42.39.39,0,0,1-.33.22.4.4,0,0,1-.32-.28,2.39,2.39,0,0,1-.09-.45,3,3,0,0,0-.68-1.21c-.74-.91-1.47-1.83-2.2-2.74a2.85,2.85,0,0,1-.48-1c-.17-.49-.37-1-.52-1.48a7.08,7.08,0,0,1,0,1,6.46,6.46,0,0,0,.18,1.07,6.26,6.26,0,0,0,.38,1,8,8,0,0,0,.5.74.26.26,0,0,1,0,.24.23.23,0,0,1-.22.1.72.72,0,0,1-.25-.07,2.8,2.8,0,0,1-1.15-.86,4.89,4.89,0,0,1-.75-1.29,8.84,8.84,0,0,1-.44-1.68,10,10,0,0,1-.34-1.77,10.13,10.13,0,0,1,0,2.58c0,.24-.16.54-.4.53s-.3-.25-.37-.45a9.55,9.55,0,0,0-2.48-4,4.67,4.67,0,0,1,.23,2,.6.6,0,0,1-.22.47.45.45,0,0,1-.47-.07,1.68,1.68,0,0,1-.3-.4,7.33,7.33,0,0,0-8-3.53,8.61,8.61,0,0,1,4.34-4,50.18,50.18,0,0,0,5.42-2.63c3.78-2.5,5.66-7,8.47-10.53a9.1,9.1,0,0,1,3.05-2.68c1.35-.66,3.48-.88,4.25.64a10.33,10.33,0,0,1,1,5.19c-.09,1.43-.45,2.94.16,4.23.15.31.33.69.11.95s-.8,0-1.05-.34a4.92,4.92,0,0,1-.89-3.42c-.82,1.21-.47,2.88.19,4.18a16.74,16.74,0,0,0,2.4,3.17c.16.18.32.44.19.64-.39.6-1.85-.28-2.23-.53a5.1,5.1,0,0,1-1.79-2c.19.38.26.81.45,1.2a6.56,6.56,0,0,0,.71,1.19A14.62,14.62,0,0,0,286,301a7,7,0,0,1,1.82,2.36.44.44,0,0,1-.06.43c-.32.37-1-.28-1.33-.46a6.67,6.67,0,0,0-2.07-.79c.15,0,.44.42.55.53a6.77,6.77,0,0,1,.51.56c.28.36.65.65,1,1A9.18,9.18,0,0,1,288,307.2a.47.47,0,0,1,0,.43c-.12.18-.41.1-.59,0s-.38-.33-.59-.47a.85.85,0,0,0-.7-.17c.19,0,.74.66.85.8a6,6,0,0,0,.86.95,2.57,2.57,0,0,0,1.53.65.83.83,0,0,1-.86.63,2.29,2.29,0,0,1-1.09-.37,4.31,4.31,0,0,1,1.48,3.17c0,.17-.09.39-.25.34s-.14-.12-.18-.21a1.2,1.2,0,0,0-.88-.66,3.26,3.26,0,0,1,.13,3.49.46.46,0,0,1-.19.2c-.22.09-.41-.16-.54-.35A3,3,0,0,0,285.22,314.25Z" style="fill:#F51212"></path><path d="M284.36,287.81c-1.43,5-2.58,7.33-.68,12.92s3.72,9.6,3.89,11.71c.19,2.31-.86,2.94-1.84,3.46s-2.72.74-5-.81-5.45-5.3-9.64-8.46-7-4.35-9.35-3c0,0-3.16-4.86,8.47-13.33S284.36,287.81,284.36,287.81Z" style="fill:#F51212"></path><path d="M289.41,309.36a2.57,2.57,0,0,1-1.53-.65,6,6,0,0,1-.86-.95c-.11-.14-.66-.85-.85-.8a.85.85,0,0,1,.7.17c.21.14.38.32.59.47s.47.21.59,0a.47.47,0,0,0,0-.43,9.18,9.18,0,0,0-1.63-2.54c-.31-.35-.68-.64-1-1a6.77,6.77,0,0,0-.51-.56c-.11-.11-.4-.51-.54-.53a6.71,6.71,0,0,1,2.06.79c.32.18,1,.83,1.33.46a.44.44,0,0,0,.06-.43A7,7,0,0,0,286,301a15.3,15.3,0,0,1-1.93-1.84,6.56,6.56,0,0,1-.71-1.19c-.19-.39-.26-.82-.45-1.2a5.1,5.1,0,0,0,1.79,2c.38.25,1.84,1.13,2.23.53.13-.2,0-.46-.19-.64a16.74,16.74,0,0,1-2.4-3.17c-.66-1.3-1-3-.19-4.18a4.92,4.92,0,0,0,.89,3.42c.25.34.77.66,1.05.34s0-.64-.11-.95c-.61-1.29-.25-2.8-.16-4.23a10.33,10.33,0,0,0-1-5.19c-.77-1.52-2.9-1.3-4.25-.64a7.74,7.74,0,0,0-2.46,2,24.74,24.74,0,0,0-7.91,4.19c-7,5.08-8.63,8.87-8.84,11.08a6.66,6.66,0,0,0-2.07,2.58,7.33,7.33,0,0,1,8,3.53,1.68,1.68,0,0,0,.3.4.45.45,0,0,0,.47.07.6.6,0,0,0,.22-.47,4.67,4.67,0,0,0-.23-2,9.55,9.55,0,0,1,2.48,4c.07.2.17.43.37.45s.36-.29.4-.53a10.28,10.28,0,0,0,0-2.54h0a11.71,11.71,0,0,0,.33,1.73,8.84,8.84,0,0,0,.44,1.68,4.89,4.89,0,0,0,.75,1.29,2.8,2.8,0,0,0,1.15.86.72.72,0,0,0,.25.07.23.23,0,0,0,.22-.1.26.26,0,0,0,0-.24,8,8,0,0,1-.5-.74,6.26,6.26,0,0,1-.38-1,6.46,6.46,0,0,1-.18-1.07c0-.21,0-.5,0-.75l.09.08c.13.38.27.75.4,1.12a2.85,2.85,0,0,0,.48,1c.73.91,1.46,1.83,2.2,2.74a3,3,0,0,1,.68,1.21,2.39,2.39,0,0,0,.09.45.4.4,0,0,0,.32.28.39.39,0,0,0,.33-.22,1,1,0,0,0,.07-.42,4.14,4.14,0,0,0-.77-2.45A14,14,0,0,1,280,317a.93.93,0,0,0,.15.37.56.56,0,0,0,.72.07.93.93,0,0,0,.37-.68,3,3,0,0,0-.08-.79,3.37,3.37,0,0,0,2.19,1.58.52.52,0,0,0,.37,0,.42.42,0,0,0,.19-.5,1.37,1.37,0,0,0-.31-.48,3.17,3.17,0,0,0,1.09.46,1.08,1.08,0,0,0,1.06-.41.88.88,0,0,0,.09-.72,4.76,4.76,0,0,0,.9-.61,3.27,3.27,0,0,1,.28.37c.13.19.32.44.54.35a.46.46,0,0,0,.19-.2,3.26,3.26,0,0,0-.13-3.49,1.2,1.2,0,0,1,.88.66c0,.09.08.19.18.21s.25-.17.25-.34a4.31,4.31,0,0,0-1.48-3.17,2.29,2.29,0,0,0,1.09.37A.83.83,0,0,0,289.41,309.36Z" style="opacity:0.30000000000000004"></path><path d="M285.24,316.92a4.4,4.4,0,0,0-.71-.42,8.43,8.43,0,0,0-2.64-.52,3.38,3.38,0,0,0,2-.59.42.42,0,0,0,.18-.22.28.28,0,0,0-.24-.29,1,1,0,0,0-.41,0,4.12,4.12,0,0,1-2.5-.2,7,7,0,0,1-2.06-1.57l2.3.72c.19.05.45.08.52-.1a.39.39,0,0,0-.07-.34,7.12,7.12,0,0,0-2.46-2.12l2.09.53a.27.27,0,0,0,.26,0c.1-.08.06-.24,0-.36a3.2,3.2,0,0,0-1.43-1.21,18,18,0,0,1-1.72-.81,8.55,8.55,0,0,1-2.75-3.54l1.46,1.27c.31.27.61.78,1.11.57.68-.3-.12-1.84-.37-2.23a4,4,0,0,0-1.87-1.62,10.26,10.26,0,0,1,1.88.59,6.09,6.09,0,0,1,1.53.7c.15.11.34.22.51.13A.33.33,0,0,0,280,305a.84.84,0,0,0-.17-.37c-.71-1-1.85-1.54-2.65-2.46a2.43,2.43,0,0,1-.56-2.6c-.28.54.87,1.9,1.34,2a.58.58,0,0,0,.57-.11c.23-.25-.08-.74-.12-1a5.56,5.56,0,0,1,0-1.47,7.65,7.65,0,0,1,1-2.82c1-1.7,2.37-3.12,3.46-4.74a7.27,7.27,0,0,0,1.45-5.53l-4.36.92-9.6,3.32-.21.15c-7,5.08-8.63,8.87-8.84,11.08a6.66,6.66,0,0,0-2.07,2.58,7.33,7.33,0,0,1,8,3.53,1.68,1.68,0,0,0,.3.4.45.45,0,0,0,.47.07.6.6,0,0,0,.22-.47,4.67,4.67,0,0,0-.23-2,9.55,9.55,0,0,1,2.48,4c.07.2.17.43.37.45s.36-.29.4-.53a10.28,10.28,0,0,0,0-2.54h0a11.71,11.71,0,0,0,.33,1.73,8.84,8.84,0,0,0,.44,1.68,4.89,4.89,0,0,0,.75,1.29,2.8,2.8,0,0,0,1.15.86.72.72,0,0,0,.25.07.23.23,0,0,0,.22-.1.26.26,0,0,0,0-.24,8,8,0,0,1-.5-.74,6.26,6.26,0,0,1-.38-1,6.46,6.46,0,0,1-.18-1.07c0-.21,0-.5,0-.75l.09.08c.13.38.27.75.4,1.12a2.85,2.85,0,0,0,.48,1c.73.91,1.46,1.83,2.2,2.74a3,3,0,0,1,.68,1.21,2.39,2.39,0,0,0,.09.45.4.4,0,0,0,.32.28.39.39,0,0,0,.33-.22,1,1,0,0,0,.07-.42,4.14,4.14,0,0,0-.77-2.45A14,14,0,0,1,280,317a.93.93,0,0,0,.15.37.56.56,0,0,0,.72.07.93.93,0,0,0,.37-.68,3,3,0,0,0-.08-.79,3.37,3.37,0,0,0,2.19,1.58.52.52,0,0,0,.37,0,.42.42,0,0,0,.19-.5,1.37,1.37,0,0,0-.31-.48,3.17,3.17,0,0,0,1.09.46A1.4,1.4,0,0,0,285.24,316.92Z" style="opacity:0.1"></path><path d="M285.19,317.17a13.21,13.21,0,0,0,.75,1.54c.42.53,1.32.39,2.49,1,.93.46,2.48,1.09,3.47,1.65.68.38.41,2-.06,2.46a4.64,4.64,0,0,0-2.5,3.53A5.06,5.06,0,0,1,291,325.6a1.44,1.44,0,0,1,2,.22,17.06,17.06,0,0,1,1.65,1.79,9.32,9.32,0,0,1,1.8,2.79,15.13,15.13,0,0,1,.41,4,8.07,8.07,0,0,0,.43-4.38,13.83,13.83,0,0,0-2.5-4.84c1.67.84,4,2,5.2,3.44s1.41,3.66,2,5.37a15.81,15.81,0,0,0-.25-3.9,4.06,4.06,0,0,0-.66-2,20.27,20.27,0,0,0-4.42-3.57,14.5,14.5,0,0,1,5.38,2c1.6,1,2.2,2.26,3.2,3.76a11.59,11.59,0,0,0-1.36-3.41c-.68-1-.85-1-2-1.72a33.3,33.3,0,0,0-5.05-2.34c-1.42-.6-2-2-4.28-2.92a41.68,41.68,0,0,1-4.79-2.26l-2-3.79c-.5-.37-2.05.38-1.69,1.24C284,315.05,284.83,316.5,285.19,317.17Z" style="fill:#37474f"></path><g id="freepik--Wing--inject-4"><path d="M382,168.43c17.59-3.81,36.26-12.48,45.87-18.3s16.14-11.62,18.31-14.7,2,4-8.7,13.42-26.28,18.67-46.77,24.48c0,0,9.79,1.45,25.2-3.45s19.4-12.33,19.76-10.15-6.71,13.78-34.27,19.4c0,0,9.43-.55,15.78-1.45s0,4.71-13.24,6-19.58,0-19.58,0,11.24,2.72,16.14,2.9-5.08,4-20.85,2.72a42.16,42.16,0,0,0,8.52,3.08c4.17.91-.18,2.36-7.26,2s-7.61-2.9-14.14-2.9c0,0,8.52,3-2,2.95s-15.29-.23-21.24,5.39a29.77,29.77,0,0,1,13.26-17.59C367.64,175.68,382,168.43,382,168.43Z" style="fill:#F51212"></path><path d="M382,168.43c17.59-3.81,36.26-12.48,45.87-18.3s16.14-11.62,18.31-14.7,2,4-8.7,13.42-26.28,18.67-46.77,24.48c0,0,9.79,1.45,25.2-3.45s19.4-12.33,19.76-10.15-6.71,13.78-34.27,19.4c0,0,9.43-.55,15.78-1.45s0,4.71-13.24,6-19.58,0-19.58,0,11.24,2.72,16.14,2.9-5.08,4-20.85,2.72a42.16,42.16,0,0,0,8.52,3.08c4.17.91-.18,2.36-7.26,2s-7.61-2.9-14.14-2.9c0,0,8.52,3-2,2.95s-15.29-.23-21.24,5.39a29.77,29.77,0,0,1,13.26-17.59C367.64,175.68,382,168.43,382,168.43Z" style="opacity:0.25"></path><path d="M369.72,193a11.29,11.29,0,0,0-3-1.53,34.11,34.11,0,0,0-7.27,1.34C363,192.44,366.47,192,369.72,193Z" style="opacity:0.15"></path><path d="M445.53,136.23c-2.64,3.22-8.86,8.55-17.7,13.9a169.52,169.52,0,0,1-43.76,17.81,29.59,29.59,0,0,0-1.46,3.4c.39-.1,5.67-2.12,5.67-2.12A293.43,293.43,0,0,0,416.52,158C433.17,150.59,441.64,141.21,445.53,136.23Z" style="opacity:0.15"></path><path d="M391.14,180.45a89.45,89.45,0,0,0,14-.28c7-.78,13-2.57,14.46-2h0c0-.47-.8-.69-2.47-.45-6.35.9-15.78,1.45-15.78,1.45C394.1,180.52,391.14,180.45,391.14,180.45Z" style="opacity:0.15"></path><path d="M378.14,170.45c6.22.44,18.83-3.76,21.32-4.78,1.22-.5,1,1.14-1.91,2.8-3.67,2.11-9,4.59-13.57,5.43,4.63.45,11.14-.86,13.59-1.55s.51,1.24-4.62,3.57c-5.43,2.46-11.43,3.45-17.29,4.57,4.18,1.52,11,.46,13.08,0s.42,1.42-2.25,2.44a14.55,14.55,0,0,1-3.32.83,137.59,137.59,0,0,1-17.59.81,21.49,21.49,0,0,1,4.79.93,7.79,7.79,0,0,1,3.82,2.91c.43.65-1.86-.39-5.11-.85s-7.83-.38-10.35.51c2.19-.34,5.24.53,6.27,1.61.5.53-1.92.43-4.77.92s-6.24,1.16-8.3,2.28a10.62,10.62,0,0,1,2.14.18c1.05.16,2.87.67.95.82a33.6,33.6,0,0,0-8.92,2.18,46.57,46.57,0,0,1,6.82-7.42" style="fill:#F51212"></path><path d="M378.14,170.45c6.22.44,18.83-3.76,21.32-4.78,1.22-.5,1,1.14-1.91,2.8-3.67,2.11-9,4.59-13.57,5.43,4.63.45,11.14-.86,13.59-1.55s.51,1.24-4.62,3.57c-5.43,2.46-11.43,3.45-17.29,4.57,4.18,1.52,11,.46,13.08,0s.42,1.42-2.25,2.44a14.55,14.55,0,0,1-3.32.83,137.59,137.59,0,0,1-17.59.81,21.49,21.49,0,0,1,4.79.93,7.79,7.79,0,0,1,3.82,2.91c.43.65-1.86-.39-5.11-.85s-7.83-.38-10.35.51c2.19-.34,5.24.53,6.27,1.61.5.53-1.92.43-4.77.92s-6.24,1.16-8.3,2.28a10.62,10.62,0,0,1,2.14.18c1.05.16,2.87.67.95.82a33.6,33.6,0,0,0-8.92,2.18,46.57,46.57,0,0,1,6.82-7.42" style="opacity:0.45"></path><path d="M287.59,254c1.4-2.25,5.62-4.28,15-6.89S327.06,226,332.66,217.5c14.45-21.82,17.33-29.07,28.92-34.33s29-13.79,44.12-26.31,21.49-22.72,21.49-25.81c0,0-3.09,7.73-23.81,21.64s-43,23.34-49.31,27.52-8,7.88-19.79,16.07-32,17.78-38.95,21-24,9.74-31.38,18.08-3.87,18.47,2.78,24.93C266.73,260.32,279.7,260,287.59,254Z" style="fill:#F51212"></path><path d="M388.76,165.4c-21.07,11.8-34.61,14.72-42.71,26.71s-17.28,30.64-29.8,45.27h0a141,141,0,0,0,16.4-19.88c14.45-21.82,17.33-29.07,28.92-34.33s29-13.79,44.12-26.31,21.49-22.72,21.49-25.81l0,0C424.24,138.4,409.8,153.62,388.76,165.4Z" style="fill:#fff;opacity:0.6000000000000001"></path><path d="M295.33,217.31c-7,3.24-24,9.74-31.38,18.08s-3.87,18.47,2.78,24.93c0,0,13-.32,20.86-6.29,1.4-2.25,5.62-4.28,15-6.89,5.87-1.63,14.24-9.76,20.82-17.53-8.07,10-20.42,13-28.9,15.49s-14.66,7.31-20.05,2.74,6.1-9.59,27.38-22.32,28.28-24.32,39.31-34.38h0c-1.86,1.5-4.07,3.19-6.87,5.14C322.54,204.48,302.28,214.06,295.33,217.31Z" style="opacity:0.1"></path><path d="M319.13,213.62s-12.74,2.11-22.72,3.18l-1.08.51c-2,.93-4.83,2.13-8,3.56,4.19.1,15.41.16,20.29-.56a59.84,59.84,0,0,1-22,2.92c-1-.06-2-.13-2.88-.22-1.73.83-3.49,1.71-5.23,2.64a56.74,56.74,0,0,0,13.2,1.59,84.22,84.22,0,0,0,15.92-1.61s-9.83,4.87-25.41,4.94-14.23,1.3-11.29,2.48,20.33,2.87,30.48,0c0,0-11.94,5.44-24.29,6.22s-14,1.08-11,2.45,17.41,3.67,33.26-3.06,17.2-10.75,22.39-18.34,8.09-18.46,8.09-18.46c-3.4,1.36-7.07,2.78-10.86,4.15-6.64,3.58-13.28,6.83-18.07,9.12C306.52,214.72,319.13,213.62,319.13,213.62Z" style="opacity:0.25"></path><path d="M330.33,200.34c-9.34,3.75-20.64,7.93-31.12,10.23s-5.25,3.33-.46,3.18,21.84-1.65,21.84-1.65-17.41,2.89-27.47,3.63-8.51,3.52-5.06,3.61,15.81.23,21-.54a60.09,60.09,0,0,1-22,2.92,50.58,50.58,0,0,1-13.12-2.28c-1.93-.52-4.11.44-1,2.43s11,3.82,19.19,3.86a85.19,85.19,0,0,0,15.92-1.61s-9.83,4.87-25.4,4.93-14.24,1.3-11.29,2.49,20.32,2.86,30.47,0c0,0-11.94,5.44-24.29,6.22s-14,1.08-10.95,2.44,17.4,3.68,33.25-3.06,17.2-10.75,22.39-18.33S330.33,200.34,330.33,200.34Z" style="fill:#F51212"></path><path d="M330.33,200.34c-9.34,3.75-20.64,7.93-31.12,10.23s-5.25,3.33-.46,3.18,21.84-1.65,21.84-1.65-17.41,2.89-27.47,3.63-8.51,3.52-5.06,3.61,15.81.23,21-.54a60.09,60.09,0,0,1-22,2.92,50.58,50.58,0,0,1-13.12-2.28c-1.93-.52-4.11.44-1,2.43s11,3.82,19.19,3.86a85.19,85.19,0,0,0,15.92-1.61s-9.83,4.87-25.4,4.93-14.24,1.3-11.29,2.49,20.32,2.86,30.47,0c0,0-11.94,5.44-24.29,6.22s-14,1.08-10.95,2.44,17.4,3.68,33.25-3.06,17.2-10.75,22.39-18.33S330.33,200.34,330.33,200.34Z" style="opacity:0.2"></path><path d="M317.09,205.34c.56,0,1.14-.06,1.79-.12,7.81-.63,9.66-1.4,9.9-1.52-.36.18-7.55,3.7-19.67,5-2,.21-3.63.43-4.91.66-1.09.29-2.18.56-3.26.81-2.15.88.14,1.63,3.83,1.72a126.11,126.11,0,0,0,15.32-.69s-.82.46-2.32,1.17l2.82-.25s-1.34.23-3.49.56a102.25,102.25,0,0,1-16.33,5.89c-1.08.3-2,.58-2.9.84a100.44,100.44,0,0,0,11.2-.59,59.06,59.06,0,0,1-16.45,2.95c-1.17,1.12.88,1.68,4.28,1.48,5.84-.36,19.28-4,19.28-4a97.52,97.52,0,0,1-15.21,6c4.16-.47,7.09-1.09,7.09-1.09s-9.41,4.64-24.36,4.91a40.16,40.16,0,0,0-4.8.87c-3,.84-.62,1.91,7.08,2.39s26.68-4.59,26.68-4.59a64.15,64.15,0,0,1-20.29,10.67c-3.82,1.16-6,2.09-6.95,2.78a57.26,57.26,0,0,0,14.43-4c15.86-6.73,17.2-10.75,22.39-18.33s8.09-18.47,8.09-18.47C326.22,202,321.72,203.72,317.09,205.34Z" style="opacity:0.1"></path><path d="M341.15,191.14c-4.63,4.5-12.06,7.83-21.2,9.9s-8.48,3.83,0,3.14,9.94-1.54,9.94-1.54-7.27,3.68-19.71,5-10.06,3.05-4.34,3.19a128.19,128.19,0,0,0,15.32-.69,95.48,95.48,0,0,1-19.32,7.37c-11.57,3.11-9.71,5-3.87,4.67s19.28-4,19.28-4a97.89,97.89,0,0,1-21.07,7.56C284.5,228.38,283,228,280,228.86s-.62,1.91,7.08,2.38,26.68-4.58,26.68-4.58a64,64,0,0,1-20.29,10.66c-11.8,3.58-7.75,5-1.91,3.94a74.91,74.91,0,0,0,18.65-5.95c5.43-2.76,9.72-9.63,14.73-17.14S333.9,201.53,341.15,191.14Z" style="fill:#F51212"></path><path d="M341.15,191.14c-4.63,4.5-12.06,7.83-21.2,9.9s-8.48,3.83,0,3.14,9.94-1.54,9.94-1.54-7.27,3.68-19.71,5-10.06,3.05-4.34,3.19a128.19,128.19,0,0,0,15.32-.69,95.48,95.48,0,0,1-19.32,7.37c-11.57,3.11-9.71,5-3.87,4.67s19.28-4,19.28-4a97.89,97.89,0,0,1-21.07,7.56C284.5,228.38,283,228,280,228.86s-.62,1.91,7.08,2.38,26.68-4.58,26.68-4.58a64,64,0,0,1-20.29,10.66c-11.8,3.58-7.75,5-1.91,3.94a74.91,74.91,0,0,0,18.65-5.95c5.43-2.76,9.72-9.63,14.73-17.14S333.9,201.53,341.15,191.14Z" style="opacity:0.1"></path></g><path d="M245.61,295.12c.13-.9.29-1.79.47-2.68a1.77,1.77,0,0,0,0-.2l1.37-8.71a27.09,27.09,0,0,1-2.17,2.7,11.16,11.16,0,0,0-.78,1.59,40.1,40.1,0,0,0-1.27,4.17c-.67,2.44-1.46,5-3.19,6.81a.84.84,0,0,0-.33.63c.06.58,1.54-.12,1.78-.3a5.24,5.24,0,0,0,1.23-1.49,17.8,17.8,0,0,0-1.55,3.27,9.62,9.62,0,0,0-.57,2.38c0,.41-.31,1.91.23,2.07a.62.62,0,0,0,.62-.23,1.7,1.7,0,0,0,.32-.61l.67-1.86c-.21,1.76-.13,3.55-.4,5.3a7.06,7.06,0,0,1-2.36,4.62c-.19.15-.41.38-.27.58a.43.43,0,0,0,.28.13,3.16,3.16,0,0,0,2.85-1c-.15.16-.07.87-.06,1.08a5.5,5.5,0,0,0,.13,1.08,63.48,63.48,0,0,0,2.08-16.08l.36-2.2C245.27,295.85,245.44,295.48,245.61,295.12Z" style="opacity:0.1"></path><path d="M313.73,268.45c-1.23-1.08-.27-1.17-1.25-3.87s-2.38-3.2-4.92-4.35a98.65,98.65,0,0,1-9.92-5.24c-3.53-2.13-17.05-2-30.24,6.28-11.48,7.18-16.18,12.33-20.19,23s-4.71,24.43-2.45,30.74c1.26,3.53,7.46-.28,10.75-3.81,3.71-4,5.07-7.91,12.61-11s14.26-7.24,17.71-14.76c2.19-4.76,3.87-10,7.76-13.44,4.61-4,7.29-3,8-2a10,10,0,0,0,2.91,2.72s1.4-2.36,2.87-2.44A44.67,44.67,0,0,0,313.73,268.45Z" style="fill:#F51212"></path><path d="M250.27,313.54a5,5,0,0,1-2.21-.75,7,7,0,0,1-2.79-3.27,7.21,7.21,0,0,1-.07-1.74c-.06-.89-.14-1.78-.14-2.67,0-1.46.05-2.92.17-4.38a.29.29,0,0,0-.35,0,.82.82,0,0,0-.16.37,134,134,0,0,1-4,14.45,3.15,3.15,0,0,0,1.81-.94c-.15.16-.07.87-.06,1.08a6.45,6.45,0,0,0,.14,1.16,5,5,0,0,0,.48,1.29c.18.33.25.72.67.81a.49.49,0,0,0,.51-.17.77.77,0,0,0,.08-.5,5.64,5.64,0,0,1,.39-2.23,2.53,2.53,0,0,0,.2,1.53,5.79,5.79,0,0,0,.85,1.33,4.52,4.52,0,0,1,.49.74,1.28,1.28,0,0,1,.13.86c0,.16-.11.35,0,.46a.3.3,0,0,0,.34,0,1.69,1.69,0,0,0,.82-1.22c.11-.5.1-1,.19-1.52a1.88,1.88,0,0,1,.74-1.29c-.09.06-.07.59-.07.7a1.6,1.6,0,0,0,.08.65,5.91,5.91,0,0,0,.58,1.25.45.45,0,0,0,.3.24.34.34,0,0,0,.32-.19,1.07,1.07,0,0,0,.1-.39,6,6,0,0,1,1.42-3.06C250.93,315.3,250.59,314.42,250.27,313.54Zm1.41,3.64-.08-.21a3.52,3.52,0,0,1-.3.45c-.14.17-.31.41-.16.58a.4.4,0,0,0,.37.08,2.77,2.77,0,0,0,.49-.15C251.89,317.68,251.78,317.43,251.68,317.18Z" style="fill:#F51212;opacity:0.15"></path><path d="M250.27,313.54a5,5,0,0,1-2.21-.75,7,7,0,0,1-2.79-3.27,7.21,7.21,0,0,1-.07-1.74c-.06-.89-.14-1.78-.14-2.67,0-1.46.05-2.92.17-4.38a.29.29,0,0,0-.35,0,.82.82,0,0,0-.16.37,134,134,0,0,1-4,14.45,3.15,3.15,0,0,0,1.81-.94c-.15.16-.07.87-.06,1.08a6.45,6.45,0,0,0,.14,1.16,5,5,0,0,0,.48,1.29c.18.33.25.72.67.81a.49.49,0,0,0,.51-.17.77.77,0,0,0,.08-.5,5.64,5.64,0,0,1,.39-2.23,2.53,2.53,0,0,0,.2,1.53,5.79,5.79,0,0,0,.85,1.33,4.52,4.52,0,0,1,.49.74,1.28,1.28,0,0,1,.13.86c0,.16-.11.35,0,.46a.3.3,0,0,0,.34,0,1.69,1.69,0,0,0,.82-1.22c.11-.5.1-1,.19-1.52a1.88,1.88,0,0,1,.74-1.29c-.09.06-.07.59-.07.7a1.6,1.6,0,0,0,.08.65,5.91,5.91,0,0,0,.58,1.25.45.45,0,0,0,.3.24.34.34,0,0,0,.32-.19,1.07,1.07,0,0,0,.1-.39,6,6,0,0,1,1.42-3.06C250.93,315.3,250.59,314.42,250.27,313.54Zm1.41,3.64-.08-.21a3.52,3.52,0,0,1-.3.45c-.14.17-.31.41-.16.58a.4.4,0,0,0,.37.08,2.77,2.77,0,0,0,.49-.15C251.89,317.68,251.78,317.43,251.68,317.18Z" style="opacity:0.15"></path><path d="M247,285.07c-.47,1.29-1.33,2.39-1.83,3.69a40.1,40.1,0,0,0-1.27,4.17c-.67,2.44-1.46,5-3.19,6.81a.84.84,0,0,0-.33.63c.06.58,1.54-.12,1.78-.3a5.38,5.38,0,0,0,1.23-1.49,17.8,17.8,0,0,0-1.55,3.27,9.2,9.2,0,0,0-.56,2.37c0,.42-.32,1.92.23,2.08a.64.64,0,0,0,.62-.23,1.85,1.85,0,0,0,.31-.61c.23-.62.45-1.24.67-1.86-.21,1.76-.13,3.55-.4,5.3a7.09,7.09,0,0,1-2.36,4.62c-.19.15-.41.38-.27.58a.43.43,0,0,0,.28.13,3.16,3.16,0,0,0,2.85-1c-.15.16-.07.87-.06,1.08a6.45,6.45,0,0,0,.14,1.16,5,5,0,0,0,.48,1.29c.18.33.25.71.67.81a.49.49,0,0,0,.51-.17.77.77,0,0,0,.08-.5,5.72,5.72,0,0,1,.39-2.24,2.55,2.55,0,0,0,.2,1.54,6.25,6.25,0,0,0,.85,1.33,3.88,3.88,0,0,1,.49.73,1.32,1.32,0,0,1,.13.87c0,.15-.11.35,0,.46s.23,0,.34,0a1.69,1.69,0,0,0,.82-1.23c.11-.49.1-1,.19-1.51a1.88,1.88,0,0,1,.74-1.29c-.09,0-.07.59-.07.7a1.6,1.6,0,0,0,.08.65,6.14,6.14,0,0,0,.58,1.25.45.45,0,0,0,.3.24.33.33,0,0,0,.32-.2,1,1,0,0,0,.1-.38,6.1,6.1,0,0,1,2.08-3.74,2.89,2.89,0,0,1-.64,1.93c-.14.17-.31.41-.16.58a.4.4,0,0,0,.37.08,3.08,3.08,0,0,0,2.06-1.57,8.23,8.23,0,0,0,.74-2.14c.08-.32.21-.61.3-.93,0-.09.39-1,.39-1a1.19,1.19,0,0,0-1.21-.06,12.05,12.05,0,0,0-1.07.68,4.52,4.52,0,0,1-4.66-.23,7,7,0,0,1-2.79-3.27,7.27,7.27,0,0,1-.07-1.75c-.06-.88-.14-1.77-.14-2.66a49.32,49.32,0,0,1,1-10.36c0-.07,0-.14.05-.21" style="fill:#F51212"></path><path d="M252.85,295.66C256,285.44,262.19,276,271,269.93s20.19-8.61,30.51-5.85c2.34.63,4.9,1.8,5.58,4.13.2.68.36,2-.38,2.37a4.5,4.5,0,0,1-2.4.4,9.59,9.59,0,0,0-1.76-.2,5,5,0,0,0-1.62.36,4.52,4.52,0,0,0-2,1.63,4,4,0,0,0-.38.74c-.09.21-.19.48-.43.51a.42.42,0,0,1-.42-.28,1.1,1.1,0,0,1,0-.54,6.17,6.17,0,0,1,1.78-3.66,5.29,5.29,0,0,0-3.63,2.91c-.14.32-.37.71-.7.64s-.39-.37-.41-.64a3.19,3.19,0,0,1,.55-1.84,5.81,5.81,0,0,0-.76.54,4.32,4.32,0,0,0-1.4,2.72,3.24,3.24,0,0,0,1.51,3.48,1.45,1.45,0,0,1,.34.2.41.41,0,0,1,.13.37c-.1.34-1.43.23-1.72.18a2.9,2.9,0,0,1-1.69-1,6.57,6.57,0,0,0,1.27,2.58,9.37,9.37,0,0,0,1.08,1.1,6.31,6.31,0,0,0,1.31.76c.16.09.34.2.37.38a.4.4,0,0,1-.19.37,1,1,0,0,1-.41.13,5.18,5.18,0,0,1-2.68-.49,10.09,10.09,0,0,1-2.42-1.5c0,.28.12.83.14,1,0,.35.06.7.07,1a14.84,14.84,0,0,1-.1,2.11,12.12,12.12,0,0,1-1.32,4.32,1.82,1.82,0,0,1-.44.58.78.78,0,0,1-.67.18c-.32-.09-.38-.4-.38-.68a13.38,13.38,0,0,0-.31-4.38,30.55,30.55,0,0,1-1.49,7,9.71,9.71,0,0,1-2.66,4.19.67.67,0,0,1-.56.22.46.46,0,0,1-.33-.42A1.31,1.31,0,0,1,282,295a6.52,6.52,0,0,0,.25-3.57,7.68,7.68,0,0,0-2.29,5.38,3.68,3.68,0,0,0,.65,2.34c.12.15.27.34.19.52s-.4.19-.62.11a4,4,0,0,1-2.22-3.89,11.09,11.09,0,0,1-2.54,4.36,7.14,7.14,0,0,1-3.72,2.19.36.36,0,0,1-.32-.05c-.13-.13,0-.34.1-.49a4.94,4.94,0,0,0,.91-1.87,3.33,3.33,0,0,0-.08-2.07,3.91,3.91,0,0,1-1.68,2.41,21.61,21.61,0,0,1-2.29,1,2.71,2.71,0,0,0-1.6,1.82c0,.17,0,.38-.19.46a.42.42,0,0,1-.48-.15,2.41,2.41,0,0,1-.11-2.7,10.59,10.59,0,0,1-4.19,1.69A14.92,14.92,0,0,1,257,303a6.51,6.51,0,0,1-3.61-1.63,4.07,4.07,0,0,1-1.15-2.71A7.52,7.52,0,0,1,252.85,295.66Z" style="fill:#F51212"></path><path d="M272.54,280.45c-.35-.81-1-1.74-1.83-1.68a1.65,1.65,0,0,0,1.29-.57c.14-.15.72-.95.4-1.1a.31.31,0,0,0-.28,0,2.32,2.32,0,0,1-1.75.44,13.34,13.34,0,0,1-2.28-.78,9.4,9.4,0,0,0-4.52-.32,50.84,50.84,0,0,0-10.72,19.18,7.55,7.55,0,0,0-.61,3,4.84,4.84,0,0,0,.52,1.86.86.86,0,0,0,0-.23,2.3,2.3,0,0,1,.48-1.49,3.49,3.49,0,0,0-.07,2.34c.07.07.12.16.2.23A6.51,6.51,0,0,0,257,303a14.92,14.92,0,0,0,4.79-.45,10.59,10.59,0,0,0,4.19-1.69,3.63,3.63,0,0,0-.35,1.56,1.51,1.51,0,0,1,.18.72,1.4,1.4,0,0,0,.28.42.42.42,0,0,0,.48.15c.15-.08.17-.29.19-.46a2.29,2.29,0,0,1,.95-1.4c0-.1.06-.2.08-.3a9.59,9.59,0,0,0-.07-3.16,2.56,2.56,0,0,0,.55.54.85.85,0,0,0,.74.09.51.51,0,0,0,.27-.64,1,1,0,0,0-.22-.25,2,2,0,0,1-.32-1.91,15.06,15.06,0,0,1,.83-1.84,2.61,2.61,0,0,0,.2-1.95c.12.33.22.67.35,1s.28.3.44,0a4.3,4.3,0,0,0,.46-2.12,13,13,0,0,0-.28-2.16,1.42,1.42,0,0,0,1,1.22c.24.07.58,0,.6-.25s-.16-.33-.3-.46a1.9,1.9,0,0,1-.4-1.59c.08-.56.27-1.11.32-1.67a1.71,1.71,0,0,0-.58-1.52,1.29,1.29,0,0,1,1,.84,1.49,1.49,0,0,0,.15.4.32.32,0,0,0,.36.15.42.42,0,0,0,.19-.3,3.62,3.62,0,0,0-.19-2,8.42,8.42,0,0,0-1-1.81,2.6,2.6,0,0,0,1.77.68,1.09,1.09,0,0,0,.56-.12.53.53,0,0,0,.28-.46C273.43,282.2,272.92,281.38,272.54,280.45Z" style="opacity:0.15"></path><path d="M296.34,266.94c-1.83,1.73-6.24,5.84-2.66,9.63h0a3.84,3.84,0,0,1-.59-2.7,4.32,4.32,0,0,1,1.4-2.72,5.81,5.81,0,0,1,.76-.54,3.19,3.19,0,0,0-.55,1.84c0,.27.14.59.41.64s.56-.32.7-.64a5.29,5.29,0,0,1,3.63-2.91,6.17,6.17,0,0,0-1.78,3.66,1.1,1.1,0,0,0,0,.54.42.42,0,0,0,.42.28c.24,0,.34-.3.43-.51a4,4,0,0,1,.38-.74,4.52,4.52,0,0,1,2-1.63,4.8,4.8,0,0,1,1.24-.31c0-.1,0-.17.06-.15a9.75,9.75,0,0,1-1.72-5C300.36,264.18,298.18,265.2,296.34,266.94Z" style="opacity:0.1"></path><path d="M308.68,267.37c.08-1.12-.67-1.36-1.62-2.18a7.54,7.54,0,0,0,.43,1.71A.85.85,0,0,0,308.68,267.37Z" style="fill:#37474f"></path><path d="M249,289.51a1.23,1.23,0,0,0-.52.35c-.1.11-.25.24-.36.15a.26.26,0,0,1-.05-.23,3.58,3.58,0,0,1,1.45-2.14c.33-.27,2.55-1.6,2.1-2.12-.14-.16-.43-.1-.59,0a3.71,3.71,0,0,0-.94.73,1.18,1.18,0,0,1-.3.29.39.39,0,0,1-.4,0c-.31-.18.17-1.07.3-1.3a4.39,4.39,0,0,1,1.05-1.18c.82-.65,1.79-1.09,2.61-1.75a3.4,3.4,0,0,1-2.36-.56c-.13-.09-.26-.21-.25-.36a.36.36,0,0,1,.33-.3,1.91,1.91,0,0,1,.47.07,3.8,3.8,0,0,0,3.21-1.16c.75-.66,1.38-1.44,2.17-2a11.57,11.57,0,0,1,2.5-1.47,11.24,11.24,0,0,1,7.76-.58,12.47,12.47,0,0,0,2.27.79,2.35,2.35,0,0,0,1.75-.44.26.26,0,0,1,.28,0c.32.14-.26.94-.4,1.1a1.72,1.72,0,0,1-1.29.57c.88-.06,1.49.86,1.83,1.68s.89,1.74,2,1.78a.56.56,0,0,1-.28.47,1.31,1.31,0,0,1-.56.12,2.67,2.67,0,0,1-1.76-.68,9,9,0,0,1,1,1.8,3.54,3.54,0,0,1,.19,2,.42.42,0,0,1-.19.3.31.31,0,0,1-.36-.15,1.74,1.74,0,0,1-.15-.4,1.28,1.28,0,0,0-1-.83,1.66,1.66,0,0,1,.58,1.51c0,.57-.24,1.11-.31,1.67a1.84,1.84,0,0,0,.4,1.59c.13.14.32.27.3.47s-.37.31-.61.24a1.42,1.42,0,0,1-1-1.22,13.29,13.29,0,0,1,.28,2.17,4.39,4.39,0,0,1-.45,2.11c-.17.31-.33.29-.45,0s-.23-.67-.34-1a2.69,2.69,0,0,1-.21,2,15.21,15.21,0,0,0-.83,1.84,2,2,0,0,0,.32,1.9.92.92,0,0,1,.22.26.48.48,0,0,1-.27.63.82.82,0,0,1-.73-.09,2.35,2.35,0,0,1-.55-.54,10.23,10.23,0,0,1,.07,3.17,4.32,4.32,0,0,1-1.49,2.53.85.85,0,0,1-.3.15.29.29,0,0,1-.31-.08.32.32,0,0,1,0-.27,2.58,2.58,0,0,1,.08-.26,1.49,1.49,0,0,0-.16-1.33,2.35,2.35,0,0,1-.65,1.82,6.62,6.62,0,0,0-1,1.54,1.82,1.82,0,0,0,0,1.32c.13.37.41.49.62.81a.62.62,0,0,1,0,.68.7.7,0,0,1-.68.21,1.6,1.6,0,0,1-1.17-.83,4.46,4.46,0,0,1-.64,3,.78.78,0,0,1-.41.37.56.56,0,0,1-.62-.37,1.75,1.75,0,0,1-.06-.79,2.77,2.77,0,0,1-1.51,1.42,2,2,0,0,1-1.33.28c-.44-.12-.8-.65-.57-1.05a1.13,1.13,0,0,1-1.47.59,1.86,1.86,0,0,1-1-1.35,5.53,5.53,0,0,1,0-1.77,2.91,2.91,0,0,0-.59,1.65.87.87,0,0,1-.54-.58,1.63,1.63,0,0,1,0-.82,13.07,13.07,0,0,1,.68-2.06,3.56,3.56,0,0,0,.28-1.2,9.52,9.52,0,0,0-.15-1.18,1.76,1.76,0,0,1-.71,1.12c-.22.15-1,.53-1.26.3s.18-.63.3-.78a2.78,2.78,0,0,0,.46-2.71,3.79,3.79,0,0,1-.21-3.07,2.28,2.28,0,0,0-.48,1.49.69.69,0,0,1,0,.32.4.4,0,0,1-.5.06,1.18,1.18,0,0,1-.61-1,4.42,4.42,0,0,1,.09-1.2,2.43,2.43,0,0,0,0-1.2,3.59,3.59,0,0,0-.77-1.14,3.5,3.5,0,0,1-.92-2.71,1.68,1.68,0,0,1-.7,1,1.37,1.37,0,0,1-1,.16.29.29,0,0,1-.19-.17.33.33,0,0,1,.17-.32,3.84,3.84,0,0,0,1-1.79,4.17,4.17,0,0,1,1.37-2A1.4,1.4,0,0,0,249,289.51Z" style="fill:#F51212"></path><path d="M249,289.51a1.23,1.23,0,0,0-.52.35c-.1.11-.25.24-.36.15a.26.26,0,0,1-.05-.23,3.58,3.58,0,0,1,1.45-2.14c.33-.27,2.55-1.6,2.1-2.12-.14-.16-.43-.1-.59,0a3.71,3.71,0,0,0-.94.73,1.18,1.18,0,0,1-.3.29.39.39,0,0,1-.4,0c-.31-.18.17-1.07.3-1.3a4.39,4.39,0,0,1,1.05-1.18c.82-.65,1.79-1.09,2.61-1.75a3.4,3.4,0,0,1-2.36-.56c-.13-.09-.26-.21-.25-.36a.36.36,0,0,1,.33-.3,1.91,1.91,0,0,1,.47.07,3.8,3.8,0,0,0,3.21-1.16c.75-.66,1.38-1.44,2.17-2a11.57,11.57,0,0,1,2.5-1.47,11.24,11.24,0,0,1,7.76-.58,12.47,12.47,0,0,0,2.27.79,2.35,2.35,0,0,0,1.75-.44.26.26,0,0,1,.28,0c.32.14-.26.94-.4,1.1a1.72,1.72,0,0,1-1.29.57c.88-.06,1.49.86,1.83,1.68s.89,1.74,2,1.78a.56.56,0,0,1-.28.47,1.31,1.31,0,0,1-.56.12,2.67,2.67,0,0,1-1.76-.68,9,9,0,0,1,1,1.8,3.54,3.54,0,0,1,.19,2,.42.42,0,0,1-.19.3.31.31,0,0,1-.36-.15,1.74,1.74,0,0,1-.15-.4,1.28,1.28,0,0,0-1-.83,1.66,1.66,0,0,1,.58,1.51c0,.57-.24,1.11-.31,1.67a1.84,1.84,0,0,0,.4,1.59c.13.14.32.27.3.47s-.37.31-.61.24a1.42,1.42,0,0,1-1-1.22,13.29,13.29,0,0,1,.28,2.17,4.39,4.39,0,0,1-.45,2.11c-.17.31-.33.29-.45,0s-.23-.67-.34-1a2.69,2.69,0,0,1-.21,2,15.21,15.21,0,0,0-.83,1.84,2,2,0,0,0,.32,1.9.92.92,0,0,1,.22.26.48.48,0,0,1-.27.63.82.82,0,0,1-.73-.09,2.35,2.35,0,0,1-.55-.54,10.23,10.23,0,0,1,.07,3.17,4.32,4.32,0,0,1-1.49,2.53.85.85,0,0,1-.3.15.29.29,0,0,1-.31-.08.32.32,0,0,1,0-.27,2.58,2.58,0,0,1,.08-.26,1.49,1.49,0,0,0-.16-1.33,2.35,2.35,0,0,1-.65,1.82,6.62,6.62,0,0,0-1,1.54,1.82,1.82,0,0,0,0,1.32c.13.37.41.49.62.81a.62.62,0,0,1,0,.68.7.7,0,0,1-.68.21,1.6,1.6,0,0,1-1.17-.83,4.46,4.46,0,0,1-.64,3,.78.78,0,0,1-.41.37.56.56,0,0,1-.62-.37,1.75,1.75,0,0,1-.06-.79,2.77,2.77,0,0,1-1.51,1.42,2,2,0,0,1-1.33.28c-.44-.12-.8-.65-.57-1.05a1.13,1.13,0,0,1-1.47.59,1.86,1.86,0,0,1-1-1.35,5.53,5.53,0,0,1,0-1.77,2.91,2.91,0,0,0-.59,1.65.87.87,0,0,1-.54-.58,1.63,1.63,0,0,1,0-.82,13.07,13.07,0,0,1,.68-2.06,3.56,3.56,0,0,0,.28-1.2,9.52,9.52,0,0,0-.15-1.18,1.76,1.76,0,0,1-.71,1.12c-.22.15-1,.53-1.26.3s.18-.63.3-.78a2.78,2.78,0,0,0,.46-2.71,3.79,3.79,0,0,1-.21-3.07,2.28,2.28,0,0,0-.48,1.49.69.69,0,0,1,0,.32.4.4,0,0,1-.5.06,1.18,1.18,0,0,1-.61-1,4.42,4.42,0,0,1,.09-1.2,2.43,2.43,0,0,0,0-1.2,3.59,3.59,0,0,0-.77-1.14,3.5,3.5,0,0,1-.92-2.71,1.68,1.68,0,0,1-.7,1,1.37,1.37,0,0,1-1,.16.29.29,0,0,1-.19-.17.33.33,0,0,1,.17-.32,3.84,3.84,0,0,0,1-1.79,4.17,4.17,0,0,1,1.37-2A1.4,1.4,0,0,0,249,289.51Z" style="opacity:0.05"></path><path d="M260.87,276c-.5.15-1,.32-1.45.51a11.57,11.57,0,0,0-2.5,1.47c-.79.61-1.42,1.39-2.17,2a3.8,3.8,0,0,1-3.21,1.16,1.91,1.91,0,0,0-.47-.07.36.36,0,0,0-.33.3c0,.15.12.27.25.36a3.4,3.4,0,0,0,2.36.56c-.82.66-1.79,1.1-2.61,1.75a4.39,4.39,0,0,0-1.05,1.18c-.13.23-.61,1.12-.3,1.3a.39.39,0,0,0,.4,0,1.18,1.18,0,0,0,.3-.29,3.71,3.71,0,0,1,.94-.73c.16-.09.45-.15.59,0,.45.52-1.77,1.85-2.1,2.12a3.58,3.58,0,0,0-1.45,2.14.26.26,0,0,0,.05.23c.11.09.26,0,.36-.15a1.23,1.23,0,0,1,.52-.35,1.4,1.4,0,0,1,.73-.08,4.17,4.17,0,0,0-1.37,2,3.84,3.84,0,0,1-1,1.79.33.33,0,0,0-.17.32.27.27,0,0,0,.19.17,1.37,1.37,0,0,0,1-.16,1.68,1.68,0,0,0,.7-1,3.5,3.5,0,0,0,.92,2.71,3.59,3.59,0,0,1,.77,1.14,2.43,2.43,0,0,1,0,1.2,4.42,4.42,0,0,0-.09,1.2,1.18,1.18,0,0,0,.61,1,.4.4,0,0,0,.5-.06.69.69,0,0,0,0-.32,2.28,2.28,0,0,1,.48-1.49,3.79,3.79,0,0,0,.21,3.07,2.78,2.78,0,0,1-.46,2.71c-.12.15-.52.57-.3.78s1-.15,1.26-.3a1.76,1.76,0,0,0,.71-1.12,9.52,9.52,0,0,1,.15,1.18,3.56,3.56,0,0,1-.28,1.2,13.07,13.07,0,0,0-.68,2.06,1.63,1.63,0,0,0,0,.82.87.87,0,0,0,.54.58,2.88,2.88,0,0,1,.59-1.65,5.53,5.53,0,0,0,0,1.77,1.86,1.86,0,0,0,1,1.35,1.13,1.13,0,0,0,1.47-.59c-.23.4.13.93.57,1.05a2,2,0,0,0,1.33-.28,4.63,4.63,0,0,0,.43-.24,1.23,1.23,0,0,0-.05-.25,1.69,1.69,0,0,1-1.29.52,1.07,1.07,0,0,1-.67-.26.63.63,0,0,1-.16-.67.46.46,0,0,1,.41-.25,1.86,1.86,0,0,1-1.3-2,1.4,1.4,0,0,0,.65.31c.25,0,.52-.18.49-.42s-.33-.36-.56-.46a2.36,2.36,0,0,1-1.2-1.13c.54.38,2.6.65,2.21-.55-.12-.37-.52-.58-.84-.81a3.33,3.33,0,0,1-1.26-3.51,3.79,3.79,0,0,0,2.49,3c.35.12.85.12,1-.23a.66.66,0,0,0-.28-.69c-.21-.16-.47-.25-.67-.42a1.79,1.79,0,0,1-.47-1.67,15.68,15.68,0,0,0,.34-1.79,2.74,2.74,0,0,0-2.31-2.73,6.26,6.26,0,0,0,2.67-.41c.2-.08.42-.2.46-.42a.49.49,0,0,0-.37-.49,2.13,2.13,0,0,0-.67,0,3.55,3.55,0,0,1-3.1-1.64c-.15-.22-.82-1.47-.41-1.6.2-.06.75.39.89.5a3.92,3.92,0,0,1,.69.72,2.54,2.54,0,0,0,.41.52.61.61,0,0,0,.61.14c.32-.14.35-.57.3-.9a7.59,7.59,0,0,0-1.21-2.57c-.45-.8-1.07-1.75-.53-2.67a4.78,4.78,0,0,0,1.43,1.33,3.22,3.22,0,0,0,1.83.62.58.58,0,0,0,.49-.69c-.1-.25-.45-.34-.66-.48a4.45,4.45,0,0,1-.71-.59,4.87,4.87,0,0,1-1-1.48,4.47,4.47,0,0,1-.34-1.57,8.28,8.28,0,0,1,.07-1.41,6.35,6.35,0,0,0,.64,1,1.62,1.62,0,0,0,1.52.74.5.5,0,0,0,.4-.4c0-.26-.2-.47-.41-.61a2.7,2.7,0,0,1-.84-1.44,4.49,4.49,0,0,1-.2-1.71,5.56,5.56,0,0,1,1.31-3.17A7.57,7.57,0,0,1,260.87,276Z" style="opacity:0.05"></path><path d="M254.56,311.54c0,1.08.77,1,2.41,1.95,1.29.76,2.25,1,3.51,1.7A4.44,4.44,0,0,0,258,318.7a5,5,0,0,1,1.69-1.74,1.42,1.42,0,0,1,2,.25c.54.63.94.89,1.63,1.78a10,10,0,0,1,1.82,2.76,12.66,12.66,0,0,1,.35,4,7.46,7.46,0,0,0,.52-4.36c-.35-1.5-1.13-2.57-2.34-4.52.29.07,4.43,2.28,5.07,3.16.45.63,1,1.79,1.84,5.45a13.67,13.67,0,0,0-.22-4c-.21-1.55-.4-1.72-.65-2a20,20,0,0,0-4.38-3.12,13,13,0,0,1,5.46,1.71c1.48,1,1.6,1.28,3.08,3.8a10.48,10.48,0,0,0-1.28-3.45c-.51-.88-.71-.82-1.85-1.64-.94-.68-2.45-1-5.09-1.83-2.14-.67-2.79-.79-4.36-1.34a17.55,17.55,0,0,1-4.18-2.08c-.15-.12.14-.68.42-1.31.38-.85.68-1.38.68-1.38.09-.5-.74-.65-.94-.68s-.81,0-1,.21l-.5.93c-.22.41-.44.81-.68,1.2A2.26,2.26,0,0,0,254.56,311.54Z" style="fill:#455a64"></path><path d="M282.56,255.69c-7.41-1.78-5.11-8.94-8.1-15.35s-10.36-7.25-21-18.4-25.65-35.62-30.32-52.14-.38-24.49-14-35a336.74,336.74,0,0,1-35-31.69c-7.57-8-27.91-41-33.36-54.39s-6.6-.39-5.44,8.74S145.76,89.16,149.45,96c0,0-36.32-28.57-50.61-46.83s-14.08-22-17.68-21.88-1.56,10.2,3,19,21.18,37.55,43.14,51.13c0,0-60.07-33.64-76.31-45.79S28.54,32.61,25.26,29.31,16.4,30.71,24,41.94,63.2,80.8,91.46,94.79c0,0-38.62-14.84-53.95-28.6s-11.26,2-3.68,10,52.08,39,76,48.93c0,0-21.09-3.67-37.34-11.22S43.35,98.28,37.91,93.91s-9.73,2.64-1.17,12.16,52.2,37.94,84.88,45.78c0,0-26-5.29-37.07-10.38s-10.16-.35-6,5,37.81,19.87,52,21.89c0,0-15-3.23-23.32-5.76s1.36,10.69,37.89,15.93c0,0-11.27-.77-16.9-1.36s3.88,5.83,15.74,8.75c0,0-7.19-.81-5.83,1.44s10.64,4.19,21.16,5.75c0,0-13-1.41-17.47-1.39s-.58,4.54,12,6.85a216.16,216.16,0,0,0,25.45,2.89s-17.87-.39-21.37.2,8,4.15,20.21,4.7c0,0-15-.22-16.71.94s2.33,3.88,10.29,5.82,24.88,3.11,24.88,3.11a57.73,57.73,0,0,1-20.21.39c-11.27-1.75-15-3-17.12-2.47s1.38,4.94,15.18,7.78c0,0-7.19-.38-7,.94s14.19,3.43,14.19,3.43-9.72.42-8.17,1.59S187,230.2,187,230.2s-8.55-.16-11.46,1.39,10.1,2.5,10.1,2.5-3.69,2.36-1.75,3.43,6.22,2.17,14.38.94c0,0-13.41,1.49-16.71,2.46s2.72,4.69,20.79,4.39a90.46,90.46,0,0,1-15.56,2.31c-7,.32-5.3,3.7-2,4.74s13.15,2.93,24.94-.17c0,0-1.94,1.41-8.92,2.85-6.38,1.31-3.52,3.76,1.34,4.73s22-.2,27.59-1c0,0-8.94,2.16-13.6,3s1.17,4.59,12.05,3.41c0,0-7,2.5-3.19,4.58,1.37.75,8.73-1,15.62-1.14,0,0-7.5,5.06,0,4.26,7.26-.77,8.42-2.31,16.49-1.63,0,0,6.69-7.62,16-10.22C283.22,258.26,290,257.46,282.56,255.69Z" style="fill:#F51212"></path><path d="M282.56,255.69c-7.41-1.78-5.11-8.94-8.1-15.35s-10.36-7.25-21-18.4-25.65-35.62-30.32-52.14-.38-24.49-14-35a336.74,336.74,0,0,1-35-31.69c-7.57-8-27.91-41-33.36-54.39s-6.6-.39-5.44,8.74S145.76,89.16,149.45,96c0,0-36.32-28.57-50.61-46.83s-14.08-22-17.68-21.88-1.56,10.2,3,19,21.18,37.55,43.14,51.13c0,0-60.07-33.64-76.31-45.79S28.54,32.61,25.26,29.31,16.4,30.71,24,41.94,63.2,80.8,91.46,94.79c0,0-38.62-14.84-53.95-28.6s-11.26,2-3.68,10,52.08,39,76,48.93c0,0-21.09-3.67-37.34-11.22S43.35,98.28,37.91,93.91s-9.73,2.64-1.17,12.16,52.2,37.94,84.88,45.78c0,0-26-5.29-37.07-10.38s-10.16-.35-6,5,37.81,19.87,52,21.89c0,0-15-3.23-23.32-5.76s1.36,10.69,37.89,15.93c0,0-11.27-.77-16.9-1.36s3.88,5.83,15.74,8.75c0,0-7.19-.81-5.83,1.44s10.64,4.19,21.16,5.75c0,0-13-1.41-17.47-1.39s-.58,4.54,12,6.85a216.16,216.16,0,0,0,25.45,2.89s-17.87-.39-21.37.2,8,4.15,20.21,4.7c0,0-15-.22-16.71.94s2.33,3.88,10.29,5.82,24.88,3.11,24.88,3.11a57.73,57.73,0,0,1-20.21.39c-11.27-1.75-15-3-17.12-2.47s1.38,4.94,15.18,7.78c0,0-7.19-.38-7,.94s14.19,3.43,14.19,3.43-9.72.42-8.17,1.59S187,230.2,187,230.2s-8.55-.16-11.46,1.39,10.1,2.5,10.1,2.5-3.69,2.36-1.75,3.43,6.22,2.17,14.38.94c0,0-13.41,1.49-16.71,2.46s2.72,4.69,20.79,4.39a90.46,90.46,0,0,1-15.56,2.31c-7,.32-5.3,3.7-2,4.74s13.15,2.93,24.94-.17c0,0-1.94,1.41-8.92,2.85-6.38,1.31-3.52,3.76,1.34,4.73s22-.2,27.59-1c0,0-8.94,2.16-13.6,3s1.17,4.59,12.05,3.41c0,0-7,2.5-3.19,4.58,1.37.75,8.73-1,15.62-1.14,0,0-7.5,5.06,0,4.26,7.26-.77,8.42-2.31,16.49-1.63,0,0,6.69-7.62,16-10.22C283.22,258.26,290,257.46,282.56,255.69Z" style="opacity:0.15"></path><path d="M216,186.7c-.62-1-1.22-2.11-1.8-3.17-5.34-9.7-9.47-20-13.87-30.12-2.2-5.07-4.48-10.12-7-15-2.14-4.15-6-7.49-9.5-10.61-7.93-7.11-17.54-11.83-26.92-16.68-5.57-3.48-11.87-5.62-17.43-9.2a84.45,84.45,0,0,1-15.16-12.42c-.49-.52-1.32-1.06-1.84-.56a1.37,1.37,0,0,0-.2,1.21c2.17,12.95,13.23,23.15,23.38,30.5,4.37,3.16,8.85,6.22,13.26,9.34-9.34-1.43-17.51-6.83-25.95-11.09-.9-.46-2.05-.88-2.84-.25a1.83,1.83,0,0,0-.45,2,5.29,5.29,0,0,0,1.2,1.77c11.24,12.18,26.76,19.35,41.84,26.21A116.76,116.76,0,0,1,142,141.92a4.6,4.6,0,0,0-2.08-.4,1.52,1.52,0,0,0-1.41,1.36c0,.65.57,1.14,1.09,1.54,9.52,7.28,20.83,11.77,32,16.17a24,24,0,0,1-7.62-.37,65.56,65.56,0,0,0-8.35-1.41c-1-.1-2.38,0-2.65,1-.21.81.5,1.55,1.16,2.06a40.15,40.15,0,0,0,14.62,6.81,106.81,106.81,0,0,0,16,2.52,24.46,24.46,0,0,1-2.3.85,26.47,26.47,0,0,1-3.45.3l-6.95.59a1.59,1.59,0,0,0-1.27.51,1.06,1.06,0,0,0,.1,1.2,2.86,2.86,0,0,0,1,.77c4.54,2.4,9.81,2.88,14.92,3.31l-7.07.91c-.66.09-1.45.28-1.64.92s.69,1.41,1.47,1.71c8.94,3.46,18.74,3.84,28.33,4.18-7.59,2-15.6,1-23.45,1-.93,0-2.16.26-2.25,1.2s.79,1.35,1.55,1.67a91.62,91.62,0,0,0,14.51,4.5c2.48.58,5,1.09,7.46,1.58,2.3.46,4.83,1.16,7.2.94-6.41.59-12.58,1.18-19,.34a4,4,0,0,0-1.38,0,1.31,1.31,0,0,0-1,.84c-.2.7.42,1.35,1,1.79a25.15,25.15,0,0,0,8.37,3.9A75.87,75.87,0,0,0,210,206l-7.88.83c-.63.07-1.38.23-1.59.82a1.13,1.13,0,0,0,.27,1.1,3,3,0,0,0,1,.66c3.48,1.67,7.35,2.25,11.16,2.81l-7.23.65c-.26,0-.55.07-.68.28-.26.4.25.85.68,1.05A22.4,22.4,0,0,0,212,216a28,28,0,0,0,3.3.22,22.34,22.34,0,0,1,2.83,0,4.77,4.77,0,0,1-2.15.56l-4.31.51-8.47,1a1.69,1.69,0,0,0-1.26.54c-.36.56.08,1.3.59,1.73a9,9,0,0,0,3.34,1.58c5.13,1.54,10.38,2,15.65,2.59L211,225.83a.87.87,0,0,0-.71.32c-.2.36.18.77.52,1,6.27,4.2,14.15,3,21.23,2.65l-10.93,2.74a1.68,1.68,0,0,0-1,.49,1.1,1.1,0,0,0,.26,1.39,3,3,0,0,0,1.42.59c5.33,1.14,10.85.94,16.29.74l-10.3,2.2a1.34,1.34,0,0,0-.92.48.91.91,0,0,0,.24,1.07,2.54,2.54,0,0,0,1.07.48c5.66,1.49,11.62,1.13,17.47.77a35.06,35.06,0,0,0-10.93,3.14c-.7.34-1.52,1-1.31,1.7a1.19,1.19,0,0,0,1,.77,3.82,3.82,0,0,0,1.34-.16,32.47,32.47,0,0,1,16,.33c-1.84-.51-4.35.46-6,1.26-.42.21-.87.49-1,1a1.13,1.13,0,0,0,.6,1.12,3.25,3.25,0,0,0,1.31.33c5.21.55,10.59.78,15.33,3a30.36,30.36,0,0,0-5.82,2.22,3.38,3.38,0,0,0-1.22.89,1.23,1.23,0,0,0-.11,1.41c.38.52,1.15.5,1.79.43a32.09,32.09,0,0,1,9.53.5,8.22,8.22,0,0,0-3.54,1.64c-.35.28-.71.68-.63,1.12a1.21,1.21,0,0,0,1.44.79c11.23-2.76,14-3.14,19.66-3.81-3.9-1.38-10.07-1.67-11.79-4.88-2.05-3.82-3.16-8.54-5.72-12-1.41-1.93-3.7-3.46-5.48-5.05q-3-2.65-5.9-5.34A282.69,282.69,0,0,1,232,208.58,147.06,147.06,0,0,1,216,186.7Z" style="opacity:0.1"></path><path d="M217.48,185.28c-.6-1-1.19-2.07-1.77-3.11-5.24-9.52-9.29-19.62-13.61-29.57-2.17-5-4.4-9.93-6.88-14.76-2.09-4.07-5.92-7.35-9.32-10.41-7.79-7-17.22-11.61-26.43-16.37-5.47-3.42-11.65-5.53-17.11-9a83.45,83.45,0,0,1-14.88-12.2c-.49-.51-1.3-1-1.81-.55a1.31,1.31,0,0,0-.19,1.18c2.12,12.72,13,22.74,23,30,4.29,3.1,8.69,6.11,13,9.17-9.18-1.4-17.19-6.7-25.48-10.89-.88-.45-2-.86-2.79-.24a1.78,1.78,0,0,0-.44,1.93,5,5,0,0,0,1.18,1.74c11,12,26.26,19,41.08,25.73a115,115,0,0,1-30.12-6.52,4.43,4.43,0,0,0-2-.4,1.48,1.48,0,0,0-1.38,1.33c0,.64.56,1.12,1.06,1.51,9.35,7.16,20.46,11.56,31.41,15.88a23.38,23.38,0,0,1-7.47-.36,63.4,63.4,0,0,0-8.21-1.39c-1-.1-2.33,0-2.59,1-.21.79.48,1.52,1.13,2a39.31,39.31,0,0,0,14.35,6.68,104.36,104.36,0,0,0,15.74,2.47,22.24,22.24,0,0,1-2.27.84,25.41,25.41,0,0,1-3.38.29l-6.82.58a1.59,1.59,0,0,0-1.26.5,1.07,1.07,0,0,0,.1,1.18,2.89,2.89,0,0,0,1,.76c4.45,2.36,9.63,2.83,14.65,3.25l-7,.89c-.65.09-1.42.28-1.6.9-.23.78.68,1.39,1.43,1.68,8.79,3.4,18.41,3.77,27.82,4.1-7.45,2-15.31,1-23,1-.92,0-2.12.26-2.22,1.17s.79,1.34,1.53,1.64a89.91,89.91,0,0,0,14.24,4.42c2.44.57,4.88,1.07,7.33,1.56,2.25.45,4.74,1.13,7.06.92-6.28.57-12.34,1.15-18.65.34a3.83,3.83,0,0,0-1.35,0,1.31,1.31,0,0,0-1,.83c-.19.69.42,1.32,1,1.75a24.58,24.58,0,0,0,8.21,3.83,73.23,73.23,0,0,0,8.95,1.72l-7.74.82c-.61.06-1.35.22-1.56.8a1.11,1.11,0,0,0,.27,1.08,2.9,2.9,0,0,0,1,.65c3.41,1.64,7.22,2.21,11,2.76l-7.1.64a.83.83,0,0,0-.67.27c-.26.39.24.84.67,1a21.87,21.87,0,0,0,6.14,1.73,25.24,25.24,0,0,0,3.25.23,23.38,23.38,0,0,1,2.77-.06,4.6,4.6,0,0,1-2.11.55c-1.41.18-2.82.34-4.23.5l-8.32,1a1.59,1.59,0,0,0-1.23.53c-.36.55.08,1.28.58,1.7A9,9,0,0,0,207.6,220c5,1.5,10.19,1.95,15.37,2.54l-10.33,1.15a.87.87,0,0,0-.7.32c-.2.36.17.75.51,1,6.15,4.12,13.88,2.91,20.84,2.6l-10.73,2.69a1.59,1.59,0,0,0-.94.49,1.08,1.08,0,0,0,.25,1.37,2.9,2.9,0,0,0,1.4.57c5.23,1.12,10.64.93,16,.73l-10.12,2.16a1.29,1.29,0,0,0-.89.46.86.86,0,0,0,.23,1.05,2.3,2.3,0,0,0,1.05.48c5.56,1.46,11.41,1.11,17.15.75A34.69,34.69,0,0,0,236,241.43c-.69.33-1.49.93-1.29,1.67a1.17,1.17,0,0,0,1,.75,3.65,3.65,0,0,0,1.31-.15,31.78,31.78,0,0,1,15.71.32c-1.81-.5-4.27.45-5.87,1.24-.41.2-.85.48-.94.93a1.1,1.1,0,0,0,.58,1.1,3.15,3.15,0,0,0,1.29.32c5.11.54,10.4.77,15.05,3a29.88,29.88,0,0,0-5.71,2.18,3.29,3.29,0,0,0-1.2.87,1.21,1.21,0,0,0-.11,1.39c.37.51,1.13.48,1.76.42a32,32,0,0,1,9.36.48,8.31,8.31,0,0,0-3.48,1.62,1.3,1.3,0,0,0-.62,1.1c.11.57.83.74,1.41.77a43.83,43.83,0,0,0,7.93-.56l4.05-.51a20.68,20.68,0,0,1,4-.51c-3.56-.3-6.6-3.8-8.29-6.95-2-3.74-3.1-8.38-5.62-11.81-1.38-1.9-3.63-3.41-5.37-5-1.94-1.73-3.88-3.48-5.8-5.24a279,279,0,0,1-22-22.08A145,145,0,0,1,217.48,185.28Z" style="fill:#F51212"></path><path d="M217.48,185.28c-.6-1-1.19-2.07-1.77-3.11-5.24-9.52-9.29-19.62-13.61-29.57-2.17-5-4.4-9.93-6.88-14.76-2.09-4.07-5.92-7.35-9.32-10.41-7.79-7-17.22-11.61-26.43-16.37-5.47-3.42-11.65-5.53-17.11-9a83.45,83.45,0,0,1-14.88-12.2c-.49-.51-1.3-1-1.81-.55a1.31,1.31,0,0,0-.19,1.18c2.12,12.72,13,22.74,23,30,4.29,3.1,8.69,6.11,13,9.17-9.18-1.4-17.19-6.7-25.48-10.89-.88-.45-2-.86-2.79-.24a1.78,1.78,0,0,0-.44,1.93,5,5,0,0,0,1.18,1.74c11,12,26.26,19,41.08,25.73a115,115,0,0,1-30.12-6.52,4.43,4.43,0,0,0-2-.4,1.48,1.48,0,0,0-1.38,1.33c0,.64.56,1.12,1.06,1.51,9.35,7.16,20.46,11.56,31.41,15.88a23.38,23.38,0,0,1-7.47-.36,63.4,63.4,0,0,0-8.21-1.39c-1-.1-2.33,0-2.59,1-.21.79.48,1.52,1.13,2a39.31,39.31,0,0,0,14.35,6.68,104.36,104.36,0,0,0,15.74,2.47,22.24,22.24,0,0,1-2.27.84,25.41,25.41,0,0,1-3.38.29l-6.82.58a1.59,1.59,0,0,0-1.26.5,1.07,1.07,0,0,0,.1,1.18,2.89,2.89,0,0,0,1,.76c4.45,2.36,9.63,2.83,14.65,3.25l-7,.89c-.65.09-1.42.28-1.6.9-.23.78.68,1.39,1.43,1.68,8.79,3.4,18.41,3.77,27.82,4.1-7.45,2-15.31,1-23,1-.92,0-2.12.26-2.22,1.17s.79,1.34,1.53,1.64a89.91,89.91,0,0,0,14.24,4.42c2.44.57,4.88,1.07,7.33,1.56,2.25.45,4.74,1.13,7.06.92-6.28.57-12.34,1.15-18.65.34a3.83,3.83,0,0,0-1.35,0,1.31,1.31,0,0,0-1,.83c-.19.69.42,1.32,1,1.75a24.58,24.58,0,0,0,8.21,3.83,73.23,73.23,0,0,0,8.95,1.72l-7.74.82c-.61.06-1.35.22-1.56.8a1.11,1.11,0,0,0,.27,1.08,2.9,2.9,0,0,0,1,.65c3.41,1.64,7.22,2.21,11,2.76l-7.1.64a.83.83,0,0,0-.67.27c-.26.39.24.84.67,1a21.87,21.87,0,0,0,6.14,1.73,25.24,25.24,0,0,0,3.25.23,23.38,23.38,0,0,1,2.77-.06,4.6,4.6,0,0,1-2.11.55c-1.41.18-2.82.34-4.23.5l-8.32,1a1.59,1.59,0,0,0-1.23.53c-.36.55.08,1.28.58,1.7A9,9,0,0,0,207.6,220c5,1.5,10.19,1.95,15.37,2.54l-10.33,1.15a.87.87,0,0,0-.7.32c-.2.36.17.75.51,1,6.15,4.12,13.88,2.91,20.84,2.6l-10.73,2.69a1.59,1.59,0,0,0-.94.49,1.08,1.08,0,0,0,.25,1.37,2.9,2.9,0,0,0,1.4.57c5.23,1.12,10.64.93,16,.73l-10.12,2.16a1.29,1.29,0,0,0-.89.46.86.86,0,0,0,.23,1.05,2.3,2.3,0,0,0,1.05.48c5.56,1.46,11.41,1.11,17.15.75A34.69,34.69,0,0,0,236,241.43c-.69.33-1.49.93-1.29,1.67a1.17,1.17,0,0,0,1,.75,3.65,3.65,0,0,0,1.31-.15,31.78,31.78,0,0,1,15.71.32c-1.81-.5-4.27.45-5.87,1.24-.41.2-.85.48-.94.93a1.1,1.1,0,0,0,.58,1.1,3.15,3.15,0,0,0,1.29.32c5.11.54,10.4.77,15.05,3a29.88,29.88,0,0,0-5.71,2.18,3.29,3.29,0,0,0-1.2.87,1.21,1.21,0,0,0-.11,1.39c.37.51,1.13.48,1.76.42a32,32,0,0,1,9.36.48,8.31,8.31,0,0,0-3.48,1.62,1.3,1.3,0,0,0-.62,1.1c.11.57.83.74,1.41.77a43.83,43.83,0,0,0,7.93-.56l4.05-.51a20.68,20.68,0,0,1,4-.51c-3.56-.3-6.6-3.8-8.29-6.95-2-3.74-3.1-8.38-5.62-11.81-1.38-1.9-3.63-3.41-5.37-5-1.94-1.73-3.88-3.48-5.8-5.24a279,279,0,0,1-22-22.08A145,145,0,0,1,217.48,185.28Z" style="opacity:0.30000000000000004"></path><path d="M283.21,258.39c-8.17.41-14.54-2.09-16.13-4.79-1.21-2.06,3.12-5,3.12-5-1.92-.68-13,5.47-12.53,2.13.52-4,8.54-8.14,9-8.39-.51.08-8.52,1.46-14.59-1.4s6.31-4.7,7.58-4.89c-1.05.08-9.56.6-15-1.53-5.75-2.29,5.72-4.13,5.72-4.13s-11.06,0-15.3-2.46,10.91-3.49,10.91-3.49c-6-.6-10.43.07-19.4-2.39-6.54-1.8-8.54-4.79-1.53-4.79s16.09-1,16.09-1-9.38,0-14.56-3c-6.31-3.65,8.49-4.9,8.49-4.9s-12.11.26-15.5-3.13c-3.12-3.12,4.2-3.49,7.92-3.49a84.94,84.94,0,0,1-13.62-2c-10.14-2.2-12.72-6.09-4.75-6.39a55.88,55.88,0,0,0,12-1.47,103.26,103.26,0,0,1-17.09-1.45c-8.47-1.52-11.4-6.57-7.16-6.57s11.79-.54,11.79-.54c-13.65-3-18.14-8-11.79-6.81a59.4,59.4,0,0,0,12.71.89,118.38,118.38,0,0,1-22.51-6.55c-11.46-4.69-14.22-10.85-7.16-9s13.51,2.9,13.51,2.9-10.82-4.46-22-10.25-15.06-14.41-2.43-8.75a163.23,163.23,0,0,0,23.6,8.74c-1-.59-28.5-16.55-38.13-26.91-9.81-10.56-9.3-16.24,1.27-9.06s27.89,17.55,28.95,18.18c-11.19-8.23-26-22.58-35.37-40.78-3.7-6.79-13-29.34-14.19-38.47s0-22.15,5.44-8.74,25.78,46.39,33.37,54.38a334.54,334.54,0,0,0,35,31.7c13.6,10.49,9.32,18.47,14,35s19.64,41,30.31,52.14,18.08,12,21.07,18.39.68,13.58,8.08,15.35C286.88,256.72,286.38,257.42,283.21,258.39Z" style="fill:#F51212"></path><path d="M386.33,188.4a66.75,66.75,0,0,1-13.2-2.68,33.38,33.38,0,0,0,6.48,3.56,64.11,64.11,0,0,0,18.89-1A84,84,0,0,1,386.33,188.4Z" style="opacity:0.15"></path><path d="M181.36,138.16a83.1,83.1,0,0,0,22.26,9s-5.33-1.65-18.8-10.46c-1.06-.63-18.27-10.93-28.95-18.18-3.53-2.4-5.93-3.35-7.2-3.18,0,0,1.69,0,8.43,5.72A142.41,142.41,0,0,0,181.36,138.16Z" style="opacity:0.1"></path><path d="M192.76,157.56c12.64,2.42,19.05,1.87,19.05,1.87a190.18,190.18,0,0,1-19.08-4.91,163.23,163.23,0,0,1-23.6-8.74c-5-2.25-7.43-2.24-7.8-1h0c1-.85,2.94.17,7.42,3.11A61.22,61.22,0,0,0,192.76,157.56Z" style="opacity:0.1"></path><path d="M178.75,162.62c2.2.58,4.09,1.78,12.69,4.15a82.13,82.13,0,0,0,18.28,2.45,127.44,127.44,0,0,1-16.17-4.44s-6.43-1.07-13.51-2.9c-3.45-.9-4.54.13-3.42,2C176.59,163.72,176.9,162.13,178.75,162.62Z" style="opacity:0.1"></path><path d="M219.89,184.72a66.09,66.09,0,0,1-11.1-1.35s-7.55.54-11.79.54c-2.19,0-2.45,1.35-1,2.87-.71-.78.23-1.74,2.2-1.51,1.64.2,2.89.28,10.66.49C216.21,186,219.89,184.72,219.89,184.72Z" style="opacity:0.1"></path><path d="M221.25,191.93a55.88,55.88,0,0,1-12,1.47c-5,.18-5.83,1.76-3.34,3.46l.07,0h0s-.79-1.51,1.55-1.93,4.17-.16,8.29-.87S221.25,191.93,221.25,191.93Z" style="opacity:0.1"></path><path d="M240.54,226.18c2.64-.45,12.62-1.8,12.62-1.8l-7.09.09s-15.15,1.05-10.91,3.49a7.74,7.74,0,0,0,1,.5C235.53,227.75,236.56,226.86,240.54,226.18Z" style="opacity:0.1"></path><path d="M238.06,218.33a28.65,28.65,0,0,0,7.67-2.43s-2.09.26-4.5.37c0,0-9.08,1-16.09,1-4.37,0-5.24,1.16-3.69,2.47a.78.78,0,0,1,.16-1.21c.76-.49,1.71,0,5.43.19A41.43,41.43,0,0,0,238.06,218.33Z" style="opacity:0.1"></path><path d="M261,247.89a26.85,26.85,0,0,1,11.54-6.74,14.93,14.93,0,0,0-5.84,1.22c-.5.25-8.52,4.34-9,8.39-.15,1.13,1,1.17,2.71.76C259.05,251.59,258.8,250.27,261,247.89Z" style="opacity:0.1"></path><path d="M274.23,257.59c-2.49-.73-4.3-2.34-4.8-3.54-.56-1.38.25-2.8,1.79-3.69a6.92,6.92,0,0,1,3.12-.89,7.67,7.67,0,0,0-4.14-.84s-4.33,2.91-3.12,5C268,255.18,270.6,256.69,274.23,257.59Z" style="opacity:0.1"></path><path d="M248.38,232a89.85,89.85,0,0,1,11.09-1.81c-2,.12-6.64.23-9,.26,0,0-11.47,1.84-5.72,4.13l.38.13C243.67,233.81,244.91,232.79,248.38,232Z" style="opacity:0.1"></path><path d="M141.88,59.07c4.11,11.34,17,38.24,33.92,54.61s28.77,23,33.92,29.22,4.23,14.37,11.83,33.15c9.37,23.14,23.55,41.61,39,52.42a68.48,68.48,0,0,1-7.19-6.53c-10.67-11.14-25.64-35.62-30.31-52.14s-.38-24.49-14-35a334.54,334.54,0,0,1-35-31.7c-7.59-8-27.93-41-33.37-54.38-3.51-8.65-5.23-6.3-5.71-1.09C135.8,43.74,138,48.42,141.88,59.07Z" style="fill:#fff;opacity:0.6000000000000001"></path><path d="M85,33.83a146.09,146.09,0,0,0,42.4,43.76h0c-10.37-9.08-21.9-19.9-28.6-28.46-14.29-18.27-14.08-22-17.68-21.88-3,.09-2.09,7,.9,14.4C79.42,32.26,81.77,29.07,85,33.83Z" style="fill:#F51212"></path><g style="opacity:0.15"><path d="M164.65,215.9A70.17,70.17,0,0,0,181,219c6.92.48,12.62-.55,15.72-2.73a57.73,57.73,0,0,1-20.21.39c-11.27-1.75-15-3-17.12-2.47-.53.13-.71.5-.47,1C159.27,214.49,161.44,214.86,164.65,215.9Z"></path><path d="M28.63,60.77a1.64,1.64,0,0,0,.51.3c3.07,1.24,4.8,3.81,11,9.59s20.37,14.57,36,21.41,37.84,13.51,37.84,13.51A216.1,216.1,0,0,1,91.46,94.79S52.84,80,37.51,66.19C33,62.15,30.19,60.67,28.63,60.77Z"></path><path d="M51.53,107.26c10.5,7.11,28.57,18,51.85,22.79s36.28,4.9,36.28,4.9-18.23-4.57-29.85-9.88c0,0-21.09-3.67-37.34-11.22S43.35,98.28,37.91,93.91c-2.44-2-4.64-1.62-5.56.19C34.6,93.31,41,100.16,51.53,107.26Z"></path><path d="M116.44,154.53c10.24,2.17,28.36,1.69,28.36,1.69s-5.36-.28-23.18-4.37c0,0-26-5.29-37.07-10.38-8-3.65-9.72-2.24-8.54.82,0,0,1.28-1.8,10,2.45S106.21,152.36,116.44,154.53Z"></path><path d="M127.64,170.5c8.58,1.62,29.11,2.41,36.06.58a131.46,131.46,0,0,1-33.1-2.71,73.34,73.34,0,0,1-12.46-2.88c-3.8-.92-7.78-2-10.86-2.88-2.45-.74-3.33-.12-2.45,1.25,0,0,.5-.75,3.14.46A97.12,97.12,0,0,0,127.64,170.5Z"></path><path d="M148.67,188.8c6.66,1.22,18,3.24,29.28,1.53a150.25,150.25,0,0,1-33.94-4.4s-7.19-.81-5.83,1.44C139.09,185.93,142,187.58,148.67,188.8Z"></path><path d="M130,178.54c3.42,1,8,1.79,16.57,2.92s23.26,0,23.26,0a245,245,0,0,1-24.7-2.92s-11.27-.77-16.9-1.36c-1.88-.19-2.07.39-1.06,1.36h0S126.61,177.57,130,178.54Z"></path><path d="M166.81,193.84s-3.36-.22-7.47-.72c0,0-13-1.41-17.47-1.39-2.36,0-2.37,1.28,0,2.82-.78-1.08-.72-1.29,1-1.43a109,109,0,0,1,11.71.58A119.64,119.64,0,0,0,166.81,193.84Z"></path><path d="M162,209.25c-.68-1.36.79-1.14,6.71-.87s17.14,1.4,27.66-2.45a153.14,153.14,0,0,1-18.17.44s-15-.22-16.71.94C160.81,207.76,161,208.45,162,209.25Z"></path><path d="M218.76,262.42c3.07-.15,5.76-.39,16.12-3.57s14.51-5.75,14.51-5.75a80.76,80.76,0,0,1-20.08,5.75l.39-.05s-8.94,2.16-13.6,3c-2,.36-2.06,1.23-.71,2C214.7,263.06,215.69,262.57,218.76,262.42Z"></path><path d="M204.71,256.43c4.76-1.38,7.76-1.07,24.72-13.78-3.45,2.42-12.82,6.79-19.74,9.54h0s-1.94,1.41-8.92,2.85c-5.74,1.18-4,3.28,0,4.39C199.13,258.37,200,257.81,204.71,256.43Z"></path><path d="M172.42,222.88c4.13.38,8.07,1.82,20.34.92a76.83,76.83,0,0,1-18.24-1.86h0s-5.61-.3-6.78.55C168.87,222.48,170.49,222.71,172.42,222.88Z"></path><path d="M240.58,268.67s-5.18,3.49-2.6,4.21c-.32-.4-.93-1.67,3.28-2.71,5.06-1.25,13.52-.59,13.52-.59A46.05,46.05,0,0,0,240.58,268.67Z"></path><path d="M228.15,266.28c4.27-2.47,15.63-4,15.63-4-3.23-.49-10.64,1.08-15.63,2.91h0s-7,2.5-3.19,4.58a2,2,0,0,0,.79.18S223.88,268.74,228.15,266.28Z"></path><path d="M198.22,238.46l-4.25.46.84-.06c-4.2.51-11.06,1.4-13.3,2.06-1.28.38-1.15,1.17.55,2a1.36,1.36,0,0,0-.15-.59c-.36-.7,1.54-.62,9.83-1.17s18-4.29,20.42-7C210.85,235.17,203.87,237.7,198.22,238.46Z"></path><path d="M185.75,248.63c3.33,0,8.22,1.12,18.77-1.08s13.32-5.94,13.32-5.94-10.36,3.07-15.54,3.7h0a90.46,90.46,0,0,1-15.56,2.31c-2.68.12-4.08.69-4.61,1.4A11.86,11.86,0,0,1,185.75,248.63Z"></path><path d="M173.38,227.63c1-.44,3.21-.08,5.76,0a68.65,68.65,0,0,0,19.23-1.3c-3.33.63-11.09.7-16.66,0h0S173.53,226.67,173.38,227.63Z"></path><path d="M204,231.56c-2.84,1.3-12.82,2.68-18.43,2.53,0,0-3.69,2.36-1.75,3.43a7,7,0,0,0,.67.32c-.61-.56-.55-1.4.32-2.14s2.46-.3,10.26-1.5S204,231.56,204,231.56Z"></path><path d="M176.6,231.56c2-.64,3.22.46,11.65,0s16.25-1.71,20.91-4.55C205,228.46,191,230.3,187,230.2h0s-8.55-.16-11.46,1.39c-.54.29-.53.55-.17.8A2.75,2.75,0,0,1,176.6,231.56Z"></path><path d="M158,201.67c-1.26.21-.58.8,1.38,1.51,0,0-.79-.53.83-.77s5.76,0,14.14.34a69.19,69.19,0,0,0,15.59-1.28,92.72,92.72,0,0,1-10.57,0S161.5,201.08,158,201.67Z"></path></g><path d="M316.13,246.87c-1.58,1.37-3.44,4.68-4.45,9.27-1.59-7.21-1.59-11.09,1.27-21.49.5-1.81-2.59-.05-4.11,9.51a55.78,55.78,0,0,0-.22,11.91c-1.9-2.28-8.13-14.36-8.59-25.71,0-.62.13-2.94-.68-1.67s-1.48,7.28.63,15.41a46.87,46.87,0,0,0,5.45,13.33c-4.18-1.54-6.2-3.09-9.58-6.2a62,62,0,0,1-8.61-10.69c-.36-.6-.42,1.14,1.83,5.4a36.64,36.64,0,0,0,15,14.71c-5.59-.33-12.29-3.47-13.74-4.26s-.5.75,2.42,2.41a41.92,41.92,0,0,0,7.07,3c2,.5,3.4.78,5.93,1.58a9.78,9.78,0,0,1,3.08,1.34c1.2,1,1.77,1.64,2.23,4.22a3.09,3.09,0,0,1,2.64-.49c-.67-.95-.88-3.52-.84-5.66a48.11,48.11,0,0,1,1.16-7.92C315.15,249.66,317.72,245.5,316.13,246.87Z" style="fill:#F51212"></path><path d="M316.13,246.87c-1.58,1.37-3.44,4.68-4.45,9.27-1.59-7.21-1.59-11.09,1.27-21.49.5-1.81-2.59-.05-4.11,9.51a55.78,55.78,0,0,0-.22,11.91c-1.9-2.28-8.13-14.36-8.59-25.71,0-.62.13-2.94-.68-1.67s-1.48,7.28.63,15.41a46.87,46.87,0,0,0,5.45,13.33c-4.18-1.54-6.2-3.09-9.58-6.2a62,62,0,0,1-8.61-10.69c-.36-.6-.42,1.14,1.83,5.4a36.64,36.64,0,0,0,15,14.71c-5.59-.33-12.29-3.47-13.74-4.26s-.5.75,2.42,2.41a41.92,41.92,0,0,0,7.07,3c2,.5,3.4.78,5.93,1.58a9.78,9.78,0,0,1,3.08,1.34c1.2,1,1.77,1.64,2.23,4.22a3.09,3.09,0,0,1,2.64-.49c-.67-.95-.88-3.52-.84-5.66a48.11,48.11,0,0,1,1.16-7.92C315.15,249.66,317.72,245.5,316.13,246.87Z" style="fill:#fff;opacity:0.7000000000000001"></path><path d="M306.22,260a49.7,49.7,0,0,1-6.59-3.1,36.32,36.32,0,0,1-6.54-5.11,35.71,35.71,0,0,0,11,8.86c2.34.22,5.49,1.28,6.55,3.33A6.78,6.78,0,0,0,306.22,260Z" style="fill:#F51212;opacity:0.30000000000000004"></path><path d="M310.64,264a6.29,6.29,0,0,0-4.75-2.51,58.32,58.32,0,0,1-7.14-1,24.25,24.25,0,0,1-6.43-2.83c-.5-.31-.91-.6-1.3-.86a47.48,47.48,0,0,0,5.51,2.26,29.54,29.54,0,0,0,7.58,1.66c2.09.2,4.84,1.07,6.14,2.73l0,.05A5.59,5.59,0,0,1,310.64,264Z" style="fill:#fff;opacity:0.30000000000000004"></path><path d="M314.05,254.87c1.1-5.21,3.67-9.37,2.08-8a9,9,0,0,0-1.31,1.51c.68-.86.9-.39-.2,2.41s-4.46,11-1.71,17.53h0a2.67,2.67,0,0,1,.82.12c-.67-.95-.88-3.52-.84-5.66A48.11,48.11,0,0,1,314.05,254.87Z" style="fill:#fff;opacity:0.30000000000000004"></path><path d="M309.93,256.45c-.89-2.11-1.51-8.24-1.23-11.26a60,60,0,0,0-.08,10.88,22.37,22.37,0,0,1,2.45,6.16A20.74,20.74,0,0,0,309.93,256.45Z" style="fill:#F51212;opacity:0.30000000000000004"></path><path d="M313,234.65c.23-.84-.31-.89-1.11.22.37-.31.35.35-.22,2.3a30.56,30.56,0,0,0-1.69,11.46c.36,5.16,1.75,7.51,1.75,7.51C310.09,248.93,310.09,245.05,313,234.65Z" style="fill:#fff;opacity:0.30000000000000004"></path><path d="M309,260.32a12.72,12.72,0,0,0-3.27-4.33c-1.13-1.24-4.22-6.81-5.61-11.25a46.53,46.53,0,0,0,5.27,12.69A7.68,7.68,0,0,1,309,260.32Z" style="fill:#F51212;opacity:0.30000000000000004"></path><path d="M306.67,252.93c-2.58-4.83-6.29-13.9-6.65-22.57,0-.62.14-2.94-.67-1.67a2.92,2.92,0,0,0-.28.65c.28-.64.41-.07.41,2.15a42.08,42.08,0,0,0,3,13.7,36.05,36.05,0,0,0,4.21,7.75Z" style="fill:#fff;opacity:0.30000000000000004"></path><path d="M301.59,255.69h0a30.32,30.32,0,0,1-5.74-4.45,62,62,0,0,1-8.61-10.69c-.25-.4-.33.29.32,2.08-.11-1,.49-.47,1.2.95S294.13,252.25,301.59,255.69Z" style="fill:#fff;opacity:0.30000000000000004"></path><g id="freepik--Beak--inject-4"><path d="M311,267.28c-.61.58-.47.89-1.54,1.7-.75.57-2.78.27-3.51.82a11.52,11.52,0,0,0-1.62,1.58c-.64.68-.05,1.29,1.37,2.21,1.19.77,2.12,1.73,4.07,4.16.72.89,1.4-.71,1.52-3.07a15.21,15.21,0,0,0,0-3.09,4.26,4.26,0,0,1,2.17,1.45c.84,1.12.13,3.17.13,3.17a6.4,6.4,0,0,0,2.54-3.23c.64-2.09-1.32-3.8-2.39-4.53a4.69,4.69,0,0,1-1.23-1.08A.89.89,0,0,0,311,267.28Z" style="fill:#455a64"></path><path d="M311.28,271.59a10.09,10.09,0,0,0-4.57,0c-.31.07-.46.29.25,1a17.6,17.6,0,0,1,2.79,3.62c.57,1.06,1-.33,1.21-1.64S311.28,271.59,311.28,271.59Z" style="fill:#263238"></path></g></g></g></svg>